<?xml version="1.0" encoding="UTF-8" standalone="no"?>
<svg
   xmlns:dc="http://purl.org/dc/elements/1.1/"
   xmlns:cc="http://creativecommons.org/ns#"
   xmlns:rdf="http://www.w3.org/1999/02/22-rdf-syntax-ns#"
   xmlns:svg="http://www.w3.org/2000/svg"
   xmlns="http://www.w3.org/2000/svg"
   xmlns:sodipodi="http://sodipodi.sourceforge.net/DTD/sodipodi-0.dtd"
   xmlns:inkscape="http://www.inkscape.org/namespaces/inkscape"
   id="svgRoot"
   viewBox="0 0 51 51"
   xml:space="preserve"
   version="1.1"
   inkscape:version="0.47 r22583"
   width="100%"
   height="100%"
   sodipodi:docname="UniUlmLogo.svg"
   inkscape:export-filename="D:\Dokumente\Bewerbungen\Opera\UniUlmLogo.png"
   inkscape:export-xdpi="176.47058"
   inkscape:export-ydpi="176.47058"><metadata
   id="metadata166"><rdf:RDF><cc:Work
       rdf:about=""><dc:format>image/svg+xml</dc:format><dc:type
         rdf:resource="http://purl.org/dc/dcmitype/StillImage" /><dc:title /></cc:Work></rdf:RDF></metadata><sodipodi:namedview
   pagecolor="#9d9d9d"
   bordercolor="#666666"
   borderopacity="1"
   objecttolerance="10"
   gridtolerance="10"
   guidetolerance="10"
   inkscape:pageopacity="0"
   inkscape:pageshadow="2"
   inkscape:window-width="1043"
   inkscape:window-height="880"
   id="namedview164"
   showgrid="false"
   inkscape:zoom="6.3566713"
   inkscape:cx="6.5746579"
   inkscape:cy="24.574321"
   inkscape:window-x="1273"
   inkscape:window-y="52"
   inkscape:window-maximized="0"
   inkscape:current-layer="svgRoot"
   showborder="true"
   borderlayer="true"
   inkscape:showpageshadow="false" />
<defs
   id="defs3"><inkscape:perspective
   sodipodi:type="inkscape:persp3d"
   inkscape:vp_x="0 : 25.5 : 1"
   inkscape:vp_y="0 : 1000 : 0"
   inkscape:vp_z="485 : 25.5 : 1"
   inkscape:persp3d-origin="242.5 : 17 : 1"
   id="perspective168" />








<clipPath
   id="clp2"
   clip-rule="nonzero">
<path
   d="m 10,10 4830.4,0 0,494.28 -4830.4,0 z"
   id="path16" />
</clipPath>


   
   

   
   
   








































</defs>
<style
   type="text/css"
   id="style5">

.ps03 { stroke:#7F7FFF;fill:none; }
.ps02 { stroke:none;fill:#ffffff;fill-rule:evenodd; }
.ps01 { stroke:none;fill:#ffffff;fill-rule:nonzero; }
.ps00 { stroke:none;fill:none; }
.ps10 { stroke-width:0.000001; }
.ps20 { 
letter-spacing:0;word-spacing:0;font-family:Arial;font-size:11.461px; }

</style>
<clipPath
   id="clp1"
   clip-rule="nonzero">
<rect
   x="0"
   y="0"
   width="485"
   height="51"
   id="rect8" />
</clipPath>
<rect
   y="-16.617575"
   x="-11.306645"
   height="85.289803"
   width="81.469154"
   id="rect2861"
   style="fill:#9d9d9d;fill-opacity:1;stroke:none" /><path
   style="fill:#ffffff;fill-rule:nonzero;stroke:none"
   id="path20"
   class="ps01"
   d="m 16.800693,16.890414 c 0.187576,0.187513 0.187576,0.493242 -0.001,0.681775 -0.187576,0.188533 -0.493406,0.188533 -0.682002,0 -0.187576,-0.187514 -0.187576,-0.493243 0.001,-0.681775 0.188595,-0.188533 0.493406,-0.188533 0.682001,0" /><path
   style="fill:#ffffff;fill-rule:nonzero;stroke:none"
   id="path22"
   class="ps01"
   d="m 47.019784,16.890414 c 0.187576,0.187513 0.187576,0.493242 0,0.681775 -0.188595,0.188533 -0.493406,0.188533 -0.682001,0 -0.187576,-0.187514 -0.187576,-0.493243 0.001,-0.681775 0.187576,-0.188533 0.493406,-0.188533 0.680982,0" /><path
   style="fill:#ffffff;fill-rule:evenodd;stroke:none"
   id="path24"
   class="ps02"
   d="m 1.8954424,15.370941 0.3313162,0.18038 0.2130617,-0.393371 1.4343441,0.780628 c 0.551514,0.299614 0.6841424,0.347512 0.9055635,0.34955 0.4025746,-0.01121 0.7900616,-0.285347 1.0365608,-0.739864 C 6.0333263,15.149797 6.0723706,14.742159 5.9234312,14.415029 5.8162887,14.173503 5.624737,14.013505 5.103908,13.731215 l -1.4591163,-0.792857 0.2130618,-0.393371 -0.3313162,-0.179361 -0.6423455,1.18419 0.3305006,0.18038 0.2170375,-0.398467 1.4591163,0.792857 c 0.459561,0.249679 0.5045181,0.28229 0.5920875,0.386238 0.1712649,0.212991 0.169328,0.520758 0,0.83464 -0.149653,0.276175 -0.358739,0.424963 -0.6024857,0.435154 -0.16209,0.0071 -0.16209,0.0071 -0.7482648,-0.302672 L 2.6918245,14.694261 2.9077407,14.295794 2.5764245,14.115414 1.8934036,15.372979" /><path
   style="fill:#ffffff;fill-rule:evenodd;stroke:none"
   id="path26"
   class="ps02"
   d="m 4.2596125,11.226276 0.2947185,0.234393 0.2783055,-0.34955 2.1173651,1.685585 -0.2783056,0.34955 0.2946165,0.234392 0.8338973,-1.04865 -0.2843202,-0.22522 -0.2867669,0.36076 -0.8625434,-0.686871 c -0.1249826,-0.09987 -0.8326739,-0.646107 -1.2233211,-0.938588 0.1267157,0.02038 0.2481303,0.04586 0.3755596,0.07643 0.6920939,0.149808 0.8907817,0.19261 1.5084569,0.300634 L 8.4902649,11.464745 8.798134,11.076469 6.3861525,9.1554727 6.6684338,8.8008272 6.3738173,8.5664351 5.5359443,9.6201807 5.8194489,9.84642 6.1097838,9.4805645 6.8958696,10.10629 c 0.4240847,0.329168 0.8051492,0.623687 1.1356498,0.869289 C 7.4617576,10.852268 6.6330595,10.683098 6.1567797,10.597494 L 4.9171476,10.396732 4.2564523,11.226276" /><path
   style="fill:#ffffff;fill-rule:evenodd;stroke:none"
   id="path28"
   class="ps02"
   d="M 7.2263702,7.7205852 7.4860201,7.993703 7.7989865,7.6961268 9.6615949,9.6609445 9.3476091,9.9595397 9.6065454,10.232658 10.629038,9.2614588 10.370102,8.988341 10.045922,9.296108 8.1833132,7.3312904 8.4962795,7.0337143 8.2374452,6.7605964 7.2251469,7.7216043" /><path
   style="fill:#ffffff;fill-rule:evenodd;stroke:none"
   id="path30"
   class="ps02"
   d="M 9.0968283,5.9921978 9.30989,6.3030222 9.6779058,6.0502863 12.297852,8.0436387 12.705626,7.7623681 11.856437,4.5522148 12.213239,4.3066126 12.000177,3.9957882 10.948121,4.7193466 11.161183,5.0301709 11.47211,4.8171798 11.825854,6.0727064 c 0.02651,0.099871 0.154954,0.5207583 0.202867,0.6899282 C 12.131684,7.073459 12.2112,7.2986793 12.252997,7.4474673 12.178578,7.3883598 12.096004,7.3180421 12.018527,7.2538391 11.572015,6.8747352 11.437449,6.7646728 11.14793,6.5394525 L 10.12136,5.7455765 10.443501,5.5244326 10.230439,5.2136083 9.0978477,5.9921978" /><path
   style="fill:#ffffff;fill-rule:evenodd;stroke:none"
   id="path32"
   class="ps02"
   d="m 15.609994,3.1132508 -0.365977,-0.7694177 -2.260086,1.0782039 0.16209,0.3403781 0.403696,-0.1926092 1.164194,2.4458311 -0.403696,0.1915902 0.16209,0.3403781 2.291689,-1.0934903 -0.401657,-0.8448308 -0.39656,0.1895519 0.236508,0.497319 L 15.188968,5.7802258 14.657842,4.6643154 15.785337,4.1262325 15.620188,3.7797398 14.493713,4.3168035 14.027832,3.3405093 15.010567,2.871725 15.214454,3.3007645 15.611013,3.1112126" /><path
   style="fill:#ffffff;fill-rule:evenodd;stroke:none"
   id="path34"
   class="ps02"
   d="M 17.907799,3.030704 17.604008,1.9341564 18.019937,1.8189985 c 0.390443,-0.1080242 0.528067,-0.1314634 0.657535,-0.1090433 0.203887,0.029554 0.349666,0.1630554 0.412871,0.3923521 0.05811,0.2089147 0.02039,0.3862375 -0.10806,0.5227964 -0.113158,0.1182151 -0.214082,0.1671318 -0.623894,0.2822896 l -0.449571,0.1243298 z m -1.320167,-1.2137437 0.0999,0.3627983 0.430201,-0.1192343 0.722779,2.6109247 -0.430201,0.1192343 0.100924,0.3627983 1.310992,-0.3627983 -0.09685,-0.3505691 -0.39656,0.1100624 L 18.010762,3.3996168 18.6632,3.2182177 19.750936,4.5318328 20.557309,4.3086507 20.457404,3.9448334 20.034339,4.0630485 19.106654,3.0378377 C 19.584768,2.7535098 19.738703,2.4202653 19.612293,1.9626911 19.517486,1.6192556 19.292191,1.4062645 18.9517,1.326775 18.68053,1.2646101 18.478682,1.2921257 17.792603,1.4816776 L 16.58967,1.8149221" /><path
   style="fill:#ffffff;fill-rule:evenodd;stroke:none"
   id="path36"
   class="ps02"
   d="m 22.694043,0.51149793 0.02753,0.24254492 C 22.473845,0.55735727 22.235298,0.4931542 21.895826,0.53187986 21.299457,0.60015931 20.920227,1.0220652 20.980374,1.5632053 c 0.02651,0.2292967 0.132526,0.4208868 0.308888,0.5554075 0.162091,0.1222916 0.338453,0.1926092 0.766615,0.3138817 0.520931,0.1365589 0.645302,0.1793609 0.766615,0.2568122 0.0999,0.072356 0.170245,0.1977047 0.187576,0.3505692 0.04078,0.36076 -0.183499,0.6114577 -0.592292,0.6583362 C 22.14049,3.728785 21.886651,3.6523527 21.7266,3.4811446 21.615481,3.3680249 21.565529,3.2385996 21.529849,2.9838256 l -0.436318,0.049936 0.127429,1.1301778 0.437338,-0.049936 -0.03364,-0.2985953 c 0.27117,0.2292967 0.547437,0.3098053 0.914433,0.2680224 C 23.20478,4.0080173 23.621728,3.5320994 23.553426,2.9349089 23.523862,2.6780967 23.408666,2.4600101 23.231285,2.3254893 23.046767,2.1848541 22.892833,2.1247274 22.307677,1.9739011 21.691939,1.8128839 21.549218,1.7232034 21.518635,1.4592575 c -0.03364,-0.2975761 0.18044,-0.51158635 0.548456,-0.5533693 0.442434,-0.0499357 0.690157,0.1385971 0.769673,0.593114 l 0.388404,-0.043821 -0.113157,-0.99158069 -0.41491,0.0468784" /><path
   style="fill:#ffffff;fill-rule:evenodd;stroke:none"
   id="path38"
   class="ps02"
   d="m 24.440334,0.41468378 -0.0031,0.37706563 0.43224,0.003057 -0.02345,2.708758 -0.43326,-0.00408 -0.0031,0.3770656 1.408858,0.012229 0.0031,-0.3770657 -0.446512,-0.00408 0.02549,-2.70875801 0.43224,0.004076 0.0031,-0.37706563 -1.394586,-0.0122292" /><path
   style="fill:#ffffff;fill-rule:evenodd;stroke:none"
   id="path40"
   class="ps02"
   d="m 26.865568,0.45035215 -0.117235,0.88661375 0.429182,0.057069 0.06728,-0.51260541 0.656515,0.0876423 -0.353743,2.68531873 -0.456707,-0.060127 -0.04893,0.3729893 1.42415,0.1885328 0.04893,-0.3740083 -0.442435,-0.058089 0.354763,-2.6853188 0.656516,0.086623 -0.06728,0.5115863 0.422046,0.05605 0.117235,-0.88559464 -2.690287,-0.35464551" /><path
   style="fill:#ffffff;fill-rule:evenodd;stroke:none"
   id="path42"
   class="ps02"
   d="m 33.004601,1.7700819 -0.184517,0.6226678 0.595349,0.1763037 0.183499,-0.6216488 -0.59535,-0.1773227 z M 30.957577,1.1005356 30.77306,1.7232034 31.368409,1.8995071 31.552927,1.2768393 30.957577,1.1005356 z m 1.11832,2.5100342 -0.910355,-0.2700605 0.34151,-0.4881472 c 0.312967,-0.4677652 0.491368,-0.7500548 0.589234,-0.9324731 -0.02141,0.2700605 -0.02855,0.4137531 -0.03568,1.0527265 l 0.01529,0.6379543 z m -0.05607,-2.1941144 -1.930809,2.6832806 -0.41389,-0.1233106 -0.107041,0.3617791 1.218224,0.3607601 0.09889,-0.3342636 -0.368016,-0.1090433 0.43224,-0.6002477 1.129533,0.3363018 0.01529,0.7327302 -0.387385,-0.1151578 -0.0999,0.3342635 1.35075,0.4005049 L 33.064748,4.9832925 32.623333,4.8518291 32.507118,1.5621862 32.018809,1.4174745" /><path
   style="fill:#ffffff;fill-rule:evenodd;stroke:none"
   id="path44"
   class="ps02"
   d="m 34.947643,2.4783538 -0.398599,0.7999906 0.386366,0.1926092 0.231412,-0.4626697 0.592291,0.296557 -1.20803,2.4244301 -0.411851,-0.2058575 -0.168207,0.3373209 1.285507,0.6420307 0.168207,-0.3373209 -0.399619,-0.1997429 1.209049,-2.423411 0.593311,0.295538 -0.230392,0.4626697 0.380249,0.190571 0.398599,-0.7999906 -2.428293,-1.2117055" /><path
   style="fill:#ffffff;fill-rule:evenodd;stroke:none"
   id="path46"
   class="ps02"
   d="m 39.525923,5.0128463 -0.239567,0.2904424 0.344568,0.2843279 -1.038803,1.259603 c -0.398599,0.4850899 -0.471998,0.6063623 -0.514814,0.8234298 -0.06626,0.3984667 0.129468,0.8305635 0.527047,1.1597316 0.349666,0.2884043 0.743168,0.4045813 1.090795,0.3210154 0.256897,-0.059108 0.45059,-0.2170675 0.82778,-0.6746418 L 41.579063,7.1947315 41.923632,7.4790593 42.164219,7.1886169 41.125415,6.3305378 40.885848,6.6219993 41.235514,6.9114227 40.17938,8.1934458 C 39.847044,8.597008 39.806267,8.6367527 39.688013,8.7019749 39.447426,8.8293619 39.144654,8.7682162 38.869407,8.5429959 38.627801,8.343253 38.52076,8.1098799 38.556441,7.8683541 38.580907,7.7073369 38.580907,7.7073369 38.997856,7.1916742 L 40.040737,5.9259566 40.390403,6.2143608 40.62997,5.9239184 39.526942,5.0128463" /><path
   style="fill:#ffffff;fill-rule:evenodd;stroke:none"
   id="path48"
   class="ps02"
   d="m 41.413915,10.889975 2.053141,-1.7548842 0.294616,0.3454737 0.286461,-0.2445831 -0.928704,-1.0883949 -0.286461,0.2445831 0.290538,0.3403782 -2.059257,1.7589602 -0.289519,-0.339359 -0.286461,0.244583 1.670852,1.958703 0.711566,-0.607381 -0.290539,-0.340378 -0.418988,0.358721 -0.747245,-0.875403" /><path
   style="fill:#ffffff;fill-rule:evenodd;stroke:none"
   id="path50"
   class="ps02"
   d="m 45.581362,11.114176 -0.32418,0.19159 0.233451,0.397447 -2.332466,1.373742 -0.226314,-0.384199 -0.32418,0.190571 0.675885,1.148522 0.312966,-0.183438 -0.233451,-0.397447 1.08162,-0.636936 c 0.785984,-0.479994 0.858364,-0.522796 1.248807,-0.768398 -0.34151,0.354645 -0.714623,0.753112 -1.11628,1.200495 l -0.945016,1.035402 0.233451,0.396429 1.394586,-0.286366 c 0.564766,-0.114139 0.851227,-0.177323 1.591337,-0.362799 l -0.445493,0.246622 -0.27015,0.158979 -0.280345,0.15694 c -0.135585,0.07134 -0.237528,0.132483 -0.273208,0.153884 l -1.082639,0.636935 -0.233451,-0.396428 -0.312966,0.183437 0.718701,1.220877 0.32418,-0.19159 -0.226314,-0.385218 2.332465,-1.373742 0.225295,0.385218 0.32418,-0.19159 -0.607582,-1.034382 -1.35177,0.302671 c -0.714624,0.162037 -0.856325,0.196686 -1.523035,0.370951 0.492387,-0.48509 0.680982,-0.685852 1.083659,-1.116929 l 0.949093,-0.988524 -0.618797,-1.052726" /><path
   style="fill:#ffffff;fill-rule:evenodd;stroke:none"
   id="path52"
   class="ps02"
   d="m 49.429727,19.920187 -0.236509,0.06013 c 0.160051,-0.272099 0.190634,-0.517701 0.105002,-0.848908 -0.149857,-0.581904 -0.620836,-0.899862 -1.147883,-0.763303 -0.222237,0.05809 -0.39758,0.189552 -0.50564,0.383181 -0.09889,0.177322 -0.144759,0.361779 -0.202867,0.803047 -0.06321,0.535026 -0.08869,0.664451 -0.148837,0.794896 -0.05811,0.108024 -0.172285,0.195666 -0.321122,0.234392 -0.350686,0.0907 -0.630011,-0.09681 -0.732973,-0.495281 -0.06932,-0.27108 -0.02956,-0.532988 0.118254,-0.715406 0.09685,-0.126368 0.217139,-0.192609 0.463843,-0.264965 l -0.110099,-0.425982 -1.100989,0.284328 0.110098,0.425982 0.28952,-0.07439 c -0.188596,0.300633 -0.230392,0.58598 -0.137624,0.944702 0.167187,0.649165 0.696274,0.995657 1.276332,0.844831 0.250781,-0.06522 0.45059,-0.210953 0.55865,-0.403562 0.113157,-0.2028 0.150876,-0.363817 0.219178,-0.965084 0.07442,-0.632859 0.142721,-0.787762 0.399619,-0.854003 0.289519,-0.07439 0.531125,0.108024 0.623893,0.465727 0.111119,0.433116 -0.0418,0.703177 -0.480153,0.84585 l 0.09786,0.378085 0.966424,-0.249679 -0.103982,-0.404581" /><path
   style="fill:#ffffff;fill-rule:evenodd;stroke:none"
   id="path54"
   class="ps02"
   d="m 50.070951,24.050584 -0.263014,0.02955 c 0.201848,-0.254774 0.276267,-0.530949 0.238548,-0.863175 -0.0999,-0.874384 -0.870597,-1.355398 -1.96547,-1.231068 -1.102008,0.125349 -1.71061,0.764322 -1.604589,1.693738 0.04995,0.437193 0.239567,0.752093 0.562727,0.933492 0.240587,0.134521 0.467921,0.164075 0.863461,0.126368 l -0.04893,-0.437192 c -0.607582,0.0265 -0.933801,-0.189552 -0.987831,-0.660374 -0.06626,-0.581904 0.420007,-0.996677 1.27939,-1.09451 0.90118,-0.101909 1.452694,0.178342 1.522015,0.7898 0.05199,0.457574 -0.164129,0.720501 -0.664671,0.826487 l 0.04893,0.431078 1.068367,-0.122292 -0.04893,-0.422925" /><path
   style="fill:#ffffff;fill-rule:evenodd;stroke:none"
   id="path56"
   class="ps02"
   d="m 50.081145,25.979734 -0.376171,-0.01631 -0.01937,0.433116 -2.70354,-0.118215 0.01937,-0.433116 -0.376171,-0.01631 -0.06218,1.408391 0.376171,0.01631 0.01937,-0.446364 2.70354,0.119234 -0.01937,0.432097 0.376171,0.0163 0.06218,-1.395142" /><path
   style="fill:#ffffff;fill-rule:evenodd;stroke:none"
   id="path58"
   class="ps02"
   d="m 48.656996,31.002859 0.840014,0.140636 0.41389,-2.472328 -0.371074,-0.06217 -0.07442,0.44025 -2.668879,-0.447384 0.0734,-0.440249 -0.371074,-0.06217 -0.420007,2.506977 0.921569,0.154902 0.0734,-0.434135 -0.544378,-0.0907 0.185537,-1.108777 1.218224,0.204838 -0.206945,1.232088 0.37821,0.06318 0.205926,-1.232088 1.066328,0.178342 -0.17942,1.074128 -0.46792,-0.07847 -0.07238,0.433116" /><path
   style="fill:#ffffff;fill-rule:evenodd;stroke:none"
   id="path60"
   class="ps02"
   d="m 49.140208,32.548828 -0.354764,-0.125349 -0.148837,0.420887 -2.550625,-0.904957 0.148838,-0.420887 -0.354763,-0.126368 -0.447532,1.263679 0.34253,0.121273 0.153935,-0.434135 1.038803,0.367894 c 0.150876,0.05401 0.998026,0.33834 1.461869,0.489166 -0.12641,0.0214 -0.249762,0.03669 -0.380249,0.04994 -0.70341,0.08357 -0.904238,0.109043 -1.524054,0.207895 l -1.463908,0.243564 -0.165148,0.467765 2.905387,1.030307 -0.150876,0.42802 0.354763,0.126368 0.449571,-1.270813 -0.341511,-0.121272 -0.156993,0.441268 -0.947054,-0.335282 c -0.508698,-0.173247 -0.964385,-0.32713 -1.356867,-0.45146 0.579039,-0.06828 1.418033,-0.178342 1.895128,-0.253755 l 1.237593,-0.212991 0.353744,-1.000753" /><path
   style="fill:#ffffff;fill-rule:evenodd;stroke:none"
   id="path62"
   class="ps02"
   d="m 44.19901,36.361268 2.295766,1.408391 -0.135585,0.220124 c -0.236509,0.387257 -0.356802,0.517701 -0.588214,0.613496 -0.354763,0.150827 -0.796178,0.08561 -1.22434,-0.177322 -0.403696,-0.24866 -0.660594,-0.577828 -0.727876,-0.922282 -0.05607,-0.295538 0.0092,-0.535026 0.259955,-0.945722 l 0.120294,-0.196685 z m 3.132721,0.774513 -0.320102,-0.196686 -0.233451,0.381142 -2.30698,-1.416544 0.233451,-0.381142 -0.320102,-0.196685 -0.565786,0.923301 c -0.34355,0.559484 -0.440396,0.811201 -0.437338,1.181133 -0.0061,0.584961 0.312967,1.117948 0.878753,1.464441 0.511756,0.312863 1.050017,0.382161 1.520996,0.187514 0.373113,-0.155922 0.586174,-0.368913 0.965404,-0.988524 l 0.587194,-0.958969" /><path
   style="fill:#ffffff;fill-rule:evenodd;stroke:none"
   id="path64"
   class="ps02"
   d="m 43.577155,41.966195 c -0.410832,0.465727 -1.037785,0.394492 -1.706533,-0.197399 -0.668749,-0.593318 -0.814528,-1.206813 -0.403696,-1.67254 0.415929,-0.470823 1.033706,-0.399486 1.722844,0.210952 0.653457,0.577828 0.799236,1.192343 0.387385,1.658172 z m 0.292577,0.258749 c 0.605544,-0.684629 0.484232,-1.632389 -0.304811,-2.33047 -0.830839,-0.735787 -1.770757,-0.757188 -2.390573,-0.05707 -0.615738,0.696043 -0.484231,1.632592 0.325199,2.350138 0.809431,0.716119 1.754447,0.733647 2.369166,0.0374" /><path
   style="fill:#ffffff;fill-rule:evenodd;stroke:none"
   id="path66"
   class="ps02"
   d="m 37.864245,43.469362 1.525073,2.221732 -0.213061,0.145731 c -0.374133,0.25671 -0.537242,0.327232 -0.787004,0.319996 -0.385346,-0.0059 -0.762536,-0.246825 -1.046959,-0.660374 -0.268111,-0.391333 -0.369035,-0.797035 -0.289519,-1.138127 0.06932,-0.293805 0.225295,-0.486517 0.621855,-0.758411 l 0.189615,-0.130547 z m 2.547566,1.984487 -0.213062,-0.310927 -0.368015,0.252838 -1.53221,-2.232942 0.368016,-0.252736 -0.213062,-0.310926 -0.890986,0.612681 c -0.5403,0.370645 -0.731954,0.562439 -0.879772,0.900881 -0.243644,0.53258 -0.168206,1.149235 0.206946,1.695368 0.339471,0.495689 0.804333,0.776654 1.313031,0.792246 0.404715,0.0092 0.686079,-0.09916 1.283468,-0.510771 l 0.925646,-0.635712" /><path
   style="fill:#ffffff;fill-rule:evenodd;stroke:none"
   id="path68"
   class="ps02"
   d="m 34.927255,48.323216 c -0.569864,0.248048 -1.107106,-0.08122 -1.463908,-0.900881 -0.355783,-0.820067 -0.228353,-1.437843 0.340491,-1.686299 0.57598,-0.250799 1.105067,0.07531 1.472063,0.92004 0.347627,0.800908 0.220198,1.4195 -0.348646,1.66714 z m 0.155973,0.35913 c 0.837975,-0.36392 1.127494,-1.273871 0.708507,-2.241299 -0.442435,-1.017873 -1.285507,-1.435907 -2.142851,-1.062815 -0.851228,0.36983 -1.127494,1.27387 -0.697293,2.266674 0.431221,0.993619 1.280409,1.407168 2.131637,1.03744" /><path
   style="fill:#ffffff;fill-rule:evenodd;stroke:none"
   id="path70"
   class="ps02"
   d="m 30.090039,50.25155 -0.06626,-0.25671 c 0.280344,0.165195 0.563747,0.199743 0.886907,0.116177 0.851228,-0.220125 1.220263,-1.050892 0.945016,-2.119007 -0.277286,-1.074841 -0.993948,-1.588771 -1.898187,-1.354277 -0.426123,0.110266 -0.711565,0.342314 -0.84613,0.687074 -0.0999,0.256813 -0.09787,0.486925 -0.0051,0.873468 l 0.426123,-0.109145 c -0.111118,-0.599535 0.05607,-0.952957 0.515834,-1.071172 0.566805,-0.146954 1.043901,0.278213 1.26104,1.115808 0.226315,0.878563 0.02549,1.464543 -0.569864,1.618631 -0.445492,0.114954 -0.736031,-0.06257 -0.911374,-0.542261 l -0.418987,0.107922 0.26913,1.041414 0.411852,-0.106699" /><path
   style="fill:#ffffff;fill-rule:evenodd;stroke:none"
   id="path72"
   class="ps02"
   d="m 25.660597,49.916369 0.06626,0.849927 2.496595,-0.196686 -0.02956,-0.375027 -0.445493,0.03465 -0.211023,-2.700605 0.445493,-0.03577 -0.02956,-0.375027 -2.530236,0.198622 0.07238,0.932779 0.438357,-0.03465 -0.04282,-0.549394 1.119339,-0.08876 0.09685,1.232088 -1.244729,0.09793 0.02956,0.382976 1.24473,-0.09753 0.08359,1.078 -1.083658,0.0856 -0.03772,-0.472963 -0.437338,0.03465" /><path
   style="fill:#ffffff;fill-rule:evenodd;stroke:none"
   id="path74"
   class="ps02"
   d="m 24.208922,50.786576 0.0367,-0.375028 -0.444473,-0.04301 0.260975,-2.696223 0.444473,0.0426 0.03568,-0.374926 -1.33342,-0.128202 -0.03466,0.360658 0.458745,0.04453 -0.106021,1.097975 c -0.01529,0.15959 -0.08767,1.050484 -0.120293,1.538631 -0.05199,-0.117094 -0.09685,-0.233373 -0.140682,-0.356683 -0.250781,-0.662413 -0.324181,-0.851965 -0.569864,-1.430812 l -0.590253,-1.36141 -0.493406,-0.0482 -0.296655,3.072881 -0.45161,-0.04382 -0.0367,0.375028 1.340556,0.129323 0.03466,-0.360658 -0.465882,-0.04494 0.09685,-1.000753 c 0.04384,-0.535025 0.08359,-1.015937 0.10908,-1.426837 0.206945,0.546236 0.515834,1.333998 0.704429,1.779546 l 0.505639,1.150356 1.055115,0.101961" /><path
   style="fill:#ffffff;fill-rule:evenodd;stroke:none"
   id="path76"
   class="ps02"
   d="m 19.263647,46.941423 -0.765596,2.583613 -0.247722,-0.07368 c -0.435299,-0.128101 -0.592291,-0.210953 -0.744187,-0.409575 -0.237528,-0.303793 -0.287481,-0.748017 -0.14374,-1.230049 0.134565,-0.455434 0.386365,-0.787864 0.70137,-0.942664 0.27117,-0.131464 0.518892,-0.129426 0.979677,0.0063 l 0.220198,0.06532 z m 0.06117,3.22972 0.10704,-0.361881 -0.428162,-0.126164 0.769673,-2.596759 0.428162,0.126266 0.107041,-0.360658 -1.036765,-0.307767 C 18.64383,46.358704 18.3747,46.329252 18.018917,46.427901 c -0.566805,0.144508 -0.998026,0.591993 -1.185602,1.228113 -0.170245,0.575687 -0.09787,1.114687 0.212043,1.519472 0.246703,0.320914 0.507678,0.470619 1.202932,0.677597 l 1.076523,0.318876" /><path
   style="fill:#ffffff;fill-rule:evenodd;stroke:none"
   id="path78"
   class="ps02"
   d="m 13.717924,47.746815 c -0.555592,-0.2775 -0.64938,-0.902104 -0.250781,-1.701075 0.398599,-0.800093 0.954191,-1.100624 1.508763,-0.822411 0.561708,0.280251 0.653457,0.895684 0.241606,1.719317 -0.389424,0.780628 -0.945016,1.081262 -1.499588,0.804169 z m -0.174323,0.350264 c 0.817586,0.407638 1.700416,0.04504 2.170375,-0.898843 0.495445,-0.993619 0.273209,-1.907647 -0.563747,-2.325578 -0.829819,-0.413651 -1.700416,-0.04464 -2.182609,0.923505 -0.483212,0.968142 -0.254858,1.885328 0.575981,2.300916" /><path
   style="fill:#ffffff;fill-rule:evenodd;stroke:none"
   id="path80"
   class="ps02"
   d="m 7.7428156,43.947522 0.1764641,-0.198723 c 0.019471,0.32611 0.1489394,0.579662 0.3998221,0.801825 0.6574332,0.583126 1.5524965,0.425065 2.2824112,-0.401321 0.735012,-0.831582 0.760498,-1.713304 0.06117,-2.332813 -0.329277,-0.291461 -0.6809818,-0.398467 -1.0428809,-0.317958 -0.2681113,0.06115 -0.4567066,0.191386 -0.7257353,0.485192 l 0.3281559,0.291359 c 0.434279,-0.427103 0.8206443,-0.48407 1.1754073,-0.170291 0.439377,0.38848 0.353744,1.021033 -0.219178,1.670299 C 9.5780013,44.455032 8.9795933,44.61503 8.5197265,44.208207 8.1753616,43.902478 8.1589487,43.5621 8.4608032,43.148551 L 8.136725,42.861879 7.425058,43.667271 7.744039,43.949459" /><path
   style="fill:#ffffff;fill-rule:evenodd;stroke:none"
   id="path82"
   class="ps02"
   d="M 6.4685228,42.738874 6.7592654,42.498469 6.4749452,42.153709 7.7336407,41.114333 C 8.2190953,40.714847 8.3139027,40.60988 8.3974963,40.405042 8.5392997,40.026957 8.4289969,39.565306 8.100841,39.165821 7.8133605,38.815251 7.4493205,38.626719 7.0918049,38.642005 c -0.2640335,0.0092 -0.4835177,0.127387 -0.9410398,0.504453 l -1.2814289,1.056803 -0.2843203,-0.344455 -0.2907426,0.239488 0.8554073,1.040497 0.290233,-0.240507 -0.2882961,-0.350569 1.2815309,-1.055784 c 0.4037979,-0.333244 0.4515074,-0.362798 0.5789367,-0.4056 0.2600577,-0.07847 0.5464168,0.03771 0.7725273,0.312863 0.1999111,0.242545 0.2600577,0.491204 0.178401,0.720501 -0.053724,0.153883 -0.053724,0.153883 -0.5614024,0.580885 l -1.265118,1.042739 -0.2888057,-0.349754 -0.290233,0.239488 0.9091315,1.104598" /><path
   style="fill:#ffffff;fill-rule:evenodd;stroke:none"
   id="path84"
   class="ps02"
   d="M 4.4014158,37.311065 3.4022683,37.854244 3.1964445,37.473102 C 3.0036695,37.118456 2.948722,36.989031 2.9415859,36.857567 2.925275,36.65171 3.0231407,36.480502 3.2311053,36.366363 c 0.1895128,-0.103948 0.371074,-0.105986 0.5331641,-0.01223 0.14058,0.08255 0.2118384,0.171208 0.4149098,0.545216 l 0.2222366,0.411715 z m -0.8840534,1.560237 0.3313162,-0.179361 -0.2130618,-0.393371 2.3785441,-1.292214 0.2130618,0.393371 0.3313161,-0.18038 -0.6494816,-1.196419 -0.3181654,0.173246 0.1967508,0.361779 -1.048896,0.569675 -0.3222431,-0.595152 1.0350316,-1.356417 -0.3998221,-0.736807 -0.3313162,0.18038 0.209086,0.386237 -0.789348,1.135274 C 3.75591,35.7386 3.3970692,35.663187 2.9802225,35.890445 c -0.3130683,0.170189 -0.4687359,0.437192 -0.4699592,0.787762 0,0.278213 0.071258,0.469803 0.4117495,1.095528 l 0.5953496,1.098586" /><path
   style="fill:#ffffff;fill-rule:evenodd;stroke:none"
   id="path86"
   class="ps02"
   d="m 2.8527932,32.352143 0.3006312,0.900881 -0.5953497,0 c -0.5627277,0.01223 -0.8959808,0.02751 -1.0998676,0.05299 0.2333485,-0.136559 0.3547631,-0.215029 0.8807912,-0.57477 l 0.5137949,-0.378085 z m -1.7637233,1.304443 3.3019477,0.0428 0.1378275,0.410696 0.356802,-0.120254 -0.4025746,-1.20559 -0.3305006,0.111081 0.1214146,0.363817 -0.7390898,-0.01019 -0.3743363,-1.118967 0.5913738,-0.433116 0.1286526,0.384199 0.3300929,-0.111081 -0.4464103,-1.338074 -0.3580253,0.120254 0.1470024,0.437192 -2.62626665,1.983161 0.16209005,0.484071" /><path
   style="fill:#ffffff;fill-rule:evenodd;stroke:none"
   id="path88"
   class="ps02"
   d="m 0.22774986,30.434203 0.37311295,-0.04892 -0.0582097,-0.442288 2.68325298,-0.353626 0.059331,0.443307 0.373113,-0.04892 -0.1744252,-1.329921 -0.3599623,0.0479 0.060147,0.456555 -1.0927316,0.143693 C 1.9320401,29.323389 1.04921,29.452814 0.56620205,29.531284 0.66814548,29.453833 0.77202583,29.384534 0.88232863,29.314217 1.4705422,28.919826 1.638545,28.805688 2.1451019,28.436775 l 1.193044,-0.882538 -0.06453,-0.491204 -3.05707962,0.402543 -0.0581077,-0.449421 -0.37311296,0.04892 0.17513882,1.336035 0.36006419,-0.0479 -0.0613699,-0.463689 0.99639506,-0.131463 c 0.5308195,-0.07745 1.0078128,-0.14675 1.4148729,-0.21503 -0.4854546,0.324073 -1.1827477,0.803048 -1.5742105,1.087376 l -1.00587578,0.751074 0.13854112,1.052726" /><path
   style="fill:#ffffff;fill-rule:evenodd;stroke:none"
   id="path90"
   class="ps02"
   d="M 2.8722644,24.806754 0.18513751,24.64166 0.20144846,24.383829 c 0.0274228,-0.452479 0.072074,-0.624706 0.23130964,-0.818335 0.24252342,-0.299614 0.6626323,-0.448402 1.1652134,-0.417829 0.4731195,0.02955 0.854184,0.198724 1.0756051,0.471842 0.1882895,0.235411 0.2432371,0.476937 0.2137754,0.956931 l -0.014272,0.230316 z m -3.1307847,0.786742 0.3762732,0.02344 0.0275247,-0.446364 2.70150087,0.165094 -0.027525,0.446364 0.3759674,0.02344 0.066467,-1.080242 c 0.03986,-0.655279 0.00724,-0.923301 -0.1684106,-1.248393 -0.2692326,-0.519739 -0.8011734,-0.839735 -1.4626843,-0.87948 -0.5985099,-0.03669 -1.10700371,0.155922 -1.43159159,0.548274 -0.2567955,0.312862 -0.34446685,0.602286 -0.38901613,1.326863 l -0.0696987,1.121006" /><path
   style="fill:#ffffff;fill-rule:evenodd;stroke:none"
   id="path92"
   class="ps02"
   d="M 0.82228394,19.716368 C 0.96683973,19.112044 1.5529125,18.87969 2.4214705,19.088604 c 0.8696794,0.208915 1.2854047,0.682795 1.140849,1.2861 C 3.415419,20.986162 2.8376036,21.212401 1.9424384,20.997372 1.0941671,20.793552 0.67844177,20.319673 0.82299755,19.715349 z M 0.44274855,19.624649 C 0.22968679,20.51432 0.78120074,21.29291 1.8046108,21.539531 2.8841918,21.799401 3.7244095,21.376476 3.9426704,20.466423 4.159708,19.563503 3.6042182,18.798162 2.5528756,18.545426 1.5019408,18.29269 0.66019389,18.72173 0.44274855,19.624649" /><path
   style="fill:#ffffff;fill-rule:nonzero;stroke:none"
   id="path94"
   class="ps01"
   d="m 12.270327,44.664049 c 0.187576,0.188227 0.187576,0.493243 0,0.682693 -0.188595,0.187513 -0.493406,0.187513 -0.682001,0 -0.187576,-0.188737 -0.187576,-0.493243 0.001,-0.682693 0.187576,-0.188737 0.493406,-0.188737 0.680982,0" /><path
   style="fill:#ffffff;fill-rule:nonzero;stroke:none"
   id="path96"
   class="ps01"
   d="m 40.425064,42.939534 c 0.188595,0.188737 0.187576,0.494466 0,0.682693 -0.188596,0.188736 -0.493406,0.188736 -0.680982,0 -0.188596,-0.188227 -0.188596,-0.493243 0,-0.682693 0.188595,-0.188736 0.493406,-0.188736 0.682001,0" /><path
   style="fill:#ffffff;fill-rule:nonzero;stroke:none"
   id="path98"
   class="ps01"
   d="m 22.052819,18.425173 c 0.912393,-0.828526 1.825807,-1.603039 2.728006,-2.315387 -1.726922,-1.312596 -3.411027,-2.37959 -4.978917,-3.149008 -0.569864,1.655013 -1.008221,3.603525 -1.304876,5.755856 1.139727,-0.133501 2.328388,-0.231335 3.555787,-0.291461 z m -3.858559,0.329168 c 0.275247,-2.215516 0.688118,-4.235364 1.229438,-5.973943 -3.164324,-1.472594 -5.819951,-1.677432 -7.342986,-0.154902 -0.761517,0.762284 -1.091814,1.808896 -1.047978,3.061365 0.116216,0.04688 0.226314,0.118215 0.320102,0.212991 0.376172,0.377066 0.376172,0.987504 0,1.363551 l -0.07952,0.07134 c 0.201847,0.827506 0.522969,1.716158 0.955209,2.647612 1.737116,-0.540121 3.753558,-0.953874 5.96573,-1.22903 z m 16.112159,6.828964 c -0.647341,-0.841773 -1.35177,-1.6917 -2.107171,-2.542645 0.03466,0.835659 0.05301,1.685585 0.05301,2.550798 0,0.859098 -0.01631,1.703929 -0.05097,2.532454 0.754382,-0.850945 1.458811,-1.700872 2.106152,-2.540607 z m -18.945167,0.0041 c -1.372159,-1.763036 -2.509847,-3.485309 -3.355978,-5.099557 -3.2796218,1.197438 -5.302995,2.930921 -5.302995,5.08529 0,1.058841 0.4890227,2.017811 1.3762363,2.862642 0.1111184,-0.04586 0.2333486,-0.07134 0.3615934,-0.07134 0.5323486,0 0.9635693,0.432097 0.9635693,0.964065 l -0.0051,0.107005 c 0.7411292,0.458593 1.6219202,0.873366 2.6158682,1.237183 0.845111,-1.610172 1.978722,-3.328368 3.346803,-5.08631 z m 19.128665,0.235412 c -0.710545,0.900881 -1.483277,1.810934 -2.307999,2.722006 -0.06015,1.232087 -0.158012,2.42443 -0.291558,3.567856 2.149987,-0.294519 4.095067,-0.73273 5.74757,-1.299348 -0.768653,-1.571446 -1.836001,-3.25907 -3.148013,-4.989495 z m -2.603635,-6.769857 c 0.134565,1.144445 0.233451,2.338826 0.293597,3.570913 0.825742,0.911073 1.596434,1.820106 2.307999,2.720988 1.313032,-1.730426 2.380379,-3.418049 3.148013,-4.988477 -1.652503,-0.568656 -3.598603,-1.006867 -5.749609,-1.303424 z m -1.769738,-6.487567 c -1.197835,-3.2763946 -2.928835,-5.2982817 -5.08086,-5.2982817 -1.065309,0 -2.027655,0.4952808 -2.875825,1.3920856 0.09073,0.1467498 0.141702,0.3189771 0.141702,0.5034335 0,0.5329874 -0.431221,0.9650846 -0.963366,0.9650846 -0.08461,0 -0.167187,-0.01019 -0.244664,-0.03159 -0.427143,0.714386 -0.813508,1.549026 -1.157058,2.485576 1.607648,0.84483 3.323356,1.976027 5.078822,3.343654 1.763621,-1.37476 3.486465,-2.513091 5.101249,-3.35996 z m -2.136734,5.858785 c 1.233515,0.06013 2.429312,0.15796 3.574136,0.293499 -0.294616,-2.155388 -0.731953,-4.105939 -1.298759,-5.760951 -1.574006,0.768399 -3.266267,1.83845 -5.001345,3.155122 0.903219,0.712348 1.814594,1.485842 2.726987,2.313349 z m 14.09164,4.418801 c -0.167187,0.138597 -0.381268,0.222163 -0.615738,0.222163 -0.532145,0 -0.963366,-0.432097 -0.963366,-0.964065 0,-0.144712 0.0316,-0.28229 0.08869,-0.4056 -0.728895,-0.444326 -1.587259,-0.84585 -2.554702,-1.201515 -0.845111,1.611191 -1.980761,3.331426 -3.349861,5.090386 1.370119,1.757941 2.505769,3.478176 3.3519,5.089367 3.2785,-1.199476 5.301058,-2.933978 5.301058,-5.087329 0,-1.010943 -0.445493,-1.929149 -1.257982,-2.744426 z m -29.858211,8.344361 c -1.471044,3.166332 -1.67595,5.823116 -0.153935,7.345646 0.716663,0.717444 1.685125,1.051707 2.840144,1.052726 0.04689,-0.111081 0.115196,-0.212991 0.204907,-0.302671 0.376171,-0.376047 0.986812,-0.376047 1.362983,0 0.03262,0.03363 0.06422,0.0693 0.09073,0.105986 0.888947,-0.196686 1.849254,-0.537064 2.862571,-1.006867 -0.53928,-1.736541 -0.952151,-3.752313 -1.22536,-5.963752 -2.218289,-0.275156 -4.240846,-0.688909 -5.98204,-1.232087 z m 27.153652,2.704681 c 0.161071,0.04178 0.312966,0.125349 0.440396,0.251717 0.376171,0.376047 0.376171,0.987504 0,1.363551 -0.03058,0.03057 -0.06321,0.05911 -0.09685,0.08459 0.152915,1.501129 -0.170245,2.749522 -1.056134,3.636135 -1.67595,1.676414 -4.641484,1.339093 -8.161591,-0.42802 -0.346607,1.044574 -0.741128,1.978066 -1.180505,2.784171 0.134566,0.165909 0.215101,0.378085 0.215101,0.607382 0,0.533089 -0.431221,0.964982 -0.964385,0.964982 -0.09583,0 -0.188595,-0.01437 -0.276266,-0.03985 -0.939919,1.129363 -2.033772,1.760387 -3.264229,1.760387 -2.370185,0 -4.230652,-2.339132 -5.470285,-6.081151 -0.982734,0.494261 -1.923672,0.876422 -2.803444,1.134254 0.0092,0.25885 -0.08359,0.519739 -0.281364,0.717444 -0.376171,0.377065 -0.986812,0.377065 -1.362983,0 -0.103983,-0.102929 -0.178401,-0.224202 -0.224276,-0.352608 -1.434344,0.119235 -2.63014,-0.211972 -3.488504,-1.069032 -1.6749307,-1.675394 -1.340556,-4.643002 0.425104,-8.166018 -0.983754,-0.326111 -1.8696425,-0.695024 -2.6423737,-1.104701 -0.1763622,0.206877 -0.4402937,0.33834 -0.7341966,0.33834 -0.5320428,0 -0.9632635,-0.432097 -0.9632635,-0.964065 0,-0.148788 0.033845,-0.290442 0.094807,-0.415791 C 6.3972643,27.959838 5.741768,26.845965 5.741768,25.590439 c 0,-2.370418 2.3348104,-4.232307 6.073892,-5.473566 -0.45059,-0.897824 -0.808412,-1.75998 -1.06327,-2.573219 -0.273209,0.02344 -0.553553,-0.0693 -0.7625373,-0.279232 -0.3761712,-0.377066 -0.3761712,-0.987504 0.00102,-1.363551 0.1019438,-0.102929 0.2232558,-0.178342 0.3517048,-0.22522 -0.174323,-1.536797 0.14476,-2.814744 1.046959,-3.717663 1.674931,-1.675395 4.641484,-1.341131 8.161591,0.425982 0.317044,-0.955913 0.673846,-1.820106 1.069387,-2.5762756 C 20.468618,9.6364862 20.37483,9.4112659 20.37483,9.1646446 c 0,-0.5329873 0.431221,-0.9650842 0.964385,-0.9650842 0.09583,0 0.189615,0.014267 0.276266,0.040764 0.970502,-1.2392211 2.111249,-1.9332257 3.402872,-1.9332257 2.368146,0 4.228614,2.3327114 5.469265,6.0697374 0.904238,-0.453498 1.771777,-0.814258 2.590383,-1.069032 0.0367,-0.179361 0.123351,-0.350569 0.263014,-0.489166 0.376171,-0.377066 0.986812,-0.376047 1.362983,0 0.0316,0.03159 0.06015,0.06522 0.08665,0.10089 1.600512,-0.210952 2.928835,0.09987 3.859579,1.030307 1.67493,1.676413 1.339536,4.644022 -0.428163,8.166018 1.025551,0.340379 1.945081,0.727635 2.74024,1.158713 0.144759,-0.0856 0.312966,-0.13554 0.493406,-0.13554 0.532145,0 0.963365,0.432097 0.963365,0.964065 0,0.03974 -0.002,0.07949 -0.0071,0.117196 1.20701,0.963046 1.883915,2.091186 1.883915,3.367094 0,2.369399 -2.334505,4.230269 -6.07277,5.470509 0.499522,0.995658 0.884869,1.946474 1.143805,2.836145 z M 25.02345,5.2880023 c -11.206641,0 -20.290718,9.0883007 -20.290718,20.3003987 0,11.212097 9.084077,20.3005 20.290718,20.3005 11.206642,0 20.29184,-9.088403 20.29184,-20.3005 0,-11.212098 -9.085198,-20.3003987 -20.29184,-20.3003987 z m 6.83021,27.1273247 c -0.275247,2.215515 -0.688118,4.236383 -1.229438,5.97598 3.165344,1.470556 5.823009,1.676414 7.345025,0.152865 0.699331,-0.700119 1.035745,-1.640745 1.050017,-2.760732 -0.210004,-0.02344 -0.41389,-0.115158 -0.574961,-0.276175 -0.376171,-0.377066 -0.376171,-0.987504 0,-1.363551 0.102963,-0.102929 0.222237,-0.177323 0.349666,-0.224201 -0.199809,-0.851965 -0.531125,-1.769151 -0.977638,-2.733216 -1.736096,0.540121 -3.752537,0.953874 -5.962671,1.22903 z m -3.868753,0.330187 c -0.912394,0.827506 -1.823768,1.602019 -2.725967,2.314368 1.730999,1.314634 3.420202,2.384685 4.99115,3.154103 0.568844,-1.656032 1.008221,-3.606582 1.302837,-5.761971 -1.142786,0.134521 -2.336543,0.233373 -3.56802,0.2935 z m -5.932088,0.001 c -1.227399,-0.06013 -2.41606,-0.15796 -3.555787,-0.291462 0.294616,2.149275 0.730934,4.096768 1.29672,5.749742 1.569929,-0.76738 3.255054,-1.833354 4.984015,-3.144931 -0.90118,-0.712349 -1.812555,-1.485843 -2.724948,-2.313349 z m -2.119404,5.85267 c 1.199874,3.283426 2.933932,5.310409 5.086977,5.310409 0.998026,0 1.905323,-0.435052 2.712715,-1.22689 -0.08461,-0.143693 -0.133546,-0.310824 -0.133546,-0.489166 0,-0.53309 0.431221,-0.964065 0.963365,-0.964065 0.09787,0 0.191654,0.01427 0.280345,0.04178 0.470978,-0.752094 0.895063,-1.648898 1.267156,-2.664937 -1.611725,-0.846869 -3.33253,-1.983162 -5.093093,-3.355884 -1.756486,1.369665 -3.475252,2.504938 -5.084939,3.350788 z m 7.780322,-14.037032 c 0,-0.650184 -1.105066,-1.322787 -2.382418,-1.426735 l 0,2.85245 c 1.28041,-0.103947 2.383438,-0.776551 2.383438,-1.425715 z m -2.136734,7.065394 c 0,0 -0.06015,-0.04586 -0.06218,-0.116177 -0.002,-0.05605 0.05199,-0.122291 0.05199,-0.122291 0.910355,-0.152865 1.629056,-0.642031 1.629056,-1.117949 0,-0.515663 -0.858364,-1.04865 -1.865565,-1.149541 l 0,2.967609 c 0,0.163055 -0.141701,0.295538 -0.317044,0.295538 -0.175343,0 -0.317044,-0.132483 -0.317044,-0.295538 l 0,-2.966589 c -1.004143,0.101909 -1.858429,0.633877 -1.858429,1.148521 0,0.474899 0.718701,0.964065 1.630076,1.117949 0,0 0.05403,0.06624 0.05199,0.122291 -0.002,0.07134 -0.06219,0.116177 -0.06219,0.116177 -1.252884,-0.133501 -2.191783,-0.689928 -2.191783,-1.356417 0,-0.564579 0.674865,-1.050688 1.642308,-1.266737 -1.141766,-0.226239 -1.950178,-0.783685 -1.950178,-1.434887 0,-0.630821 0.756421,-1.171961 1.840079,-1.410429 -1.276331,-0.24866 -2.182609,-0.870309 -2.182609,-1.596924 0,-0.6991 0.838995,-1.301386 2.040908,-1.56737 -1.418033,-0.277195 -2.421157,-0.967123 -2.421157,-1.773228 0,-0.668527 0.689138,-1.256546 1.72998,-1.595905 0.08971,-0.152864 0.336414,-0.291461 0.642244,-0.345474 0.408793,-0.07236 0.769673,0.03465 0.806373,0.238469 0.03568,0.203819 -0.267092,0.42802 -0.675885,0.500376 -0.203887,0.03567 -0.395541,0.0265 -0.54132,-0.0163 -0.704429,0.310824 -1.177447,0.768398 -1.177447,1.21782 0,0.727635 1.24473,1.479728 2.676015,1.586733 l 0,-3.829764 c 0,-0.164075 0.141702,-0.296557 0.317045,-0.296557 0.175342,0 0.317044,0.130444 0.317044,0.296557 l 0,3.829764 c 1.438421,-0.105986 2.68417,-0.859098 2.68417,-1.586733 0,-0.449422 -0.473017,-0.906996 -1.176427,-1.21782 -0.145779,0.0428 -0.338452,0.05197 -0.542339,0.0163 -0.408793,-0.07236 -0.711565,-0.296557 -0.674866,-0.500376 0.03568,-0.203819 0.39656,-0.310824 0.806373,-0.238469 0.30583,0.05401 0.552533,0.19261 0.642244,0.345474 1.040842,0.339359 1.72998,0.927378 1.72998,1.595905 0,0.806105 -1.003124,1.496033 -2.421157,1.773228 1.202933,0.265984 2.040908,0.86725 2.040908,1.566351 0,0.726615 -0.904239,1.348264 -2.182609,1.596923 1.083658,0.238469 1.840079,0.780628 1.840079,1.41043 0,0.651202 -0.808412,1.208648 -1.950178,1.434887 0.967443,0.216049 1.642308,0.702158 1.642308,1.266737 0,0.666489 -0.938899,1.222916 -2.191783,1.356417 z m 4.365218,-1.108777 c 0.692196,-0.692985 1.353809,-1.389028 1.9828,-2.08609 0.04689,-0.928396 0.07136,-1.880232 0.07136,-2.848374 -0.001,-0.971199 -0.02549,-1.923035 -0.07238,-2.85245 -0.625933,-0.695024 -1.285507,-1.389029 -1.974644,-2.077938 -0.688118,-0.68789 -1.380314,-1.347245 -2.073529,-1.971951 -0.931763,-0.0479 -1.889012,-0.07236 -2.862572,-0.07236 -0.970501,0 -1.922653,0.02548 -2.851358,0.07236 -0.693215,0.625725 -1.38745,1.28508 -2.076587,1.975009 -0.683021,0.683813 -1.336479,1.371703 -1.957314,2.059593 -0.04791,0.934512 -0.07238,1.892462 -0.07238,2.868756 0,0.975275 0.02447,1.931188 0.07238,2.86468 0.622874,0.690947 1.27837,1.380875 1.96343,2.065708 0.688118,0.68789 1.378275,1.345207 2.070471,1.968894 0.928705,0.0479 1.880857,0.07236 2.851358,0.07236 0.974579,0 1.931828,-0.02446 2.86461,-0.07236 0.690157,-0.622668 1.380314,-1.278966 2.065374,-1.964817 z m -2.500673,-2.948245 c 0,-0.579866 -0.975598,-1.179095 -2.111248,-1.281004 l 0,2.55997 c 1.138708,-0.10191 2.111248,-0.701139 2.111248,-1.279985 z m -5.119599,-3.008372 c 0,0.649164 1.100989,1.320748 2.374263,1.425715 l 0,-2.851431 c -1.276332,0.105986 -2.374263,0.776551 -2.374263,1.424697 z m 15.493363,-4.579819 c 1.471044,-3.168371 1.67595,-5.826174 0.152915,-7.348704 -0.746226,-0.748016 -1.76668,-1.079223 -2.986942,-1.049669 -0.01835,0.217068 -0.111119,0.430059 -0.277287,0.597191 -0.376171,0.377065 -0.986812,0.376046 -1.362983,-0.001 -0.09481,-0.09478 -0.165149,-0.202801 -0.212043,-0.318978 -0.788022,0.202801 -1.630075,0.513625 -2.509847,0.922283 0.542339,1.737559 0.95623,3.756389 1.231477,5.968847 2.211153,0.275156 4.228613,0.688909 5.96471,1.22903 z M 25.017334,34.876444 c 0.843072,-0.649164 1.6943,-1.354379 2.546547,-2.111567 -0.833898,0.03465 -1.682067,0.05299 -2.545528,0.05299 -0.862441,0 -1.71163,-0.01732 -2.544508,-0.05197 0.851228,0.756169 1.702455,1.462403 2.543489,2.110548 z m -2.424215,-7.305901 c 0,0.578847 0.971521,1.176037 2.103093,1.279985 l 0,-2.55997 c -1.13463,0.105986 -2.103093,0.702157 -2.103093,1.279985 z m 9.308455,1.282023 c -0.566806,0.616553 -1.158078,1.232087 -1.770758,1.845583 -0.609622,0.60942 -1.222302,1.198458 -1.834982,1.762018 1.139728,-0.06726 2.241736,-0.171208 3.29787,-0.308786 0.136605,-1.055784 0.240587,-2.159465 0.30787,-3.299834 z m -10.160702,3.609639 c -0.610641,-0.562541 -1.221282,-1.148521 -1.829885,-1.756922 -0.609621,-0.609419 -1.196816,-1.221896 -1.760563,-1.835392 0.06728,1.135273 0.170246,2.233859 0.305831,3.285566 1.052056,0.136559 2.149987,0.239488 3.284617,0.306748 z M 27.565919,18.40581 c -0.852247,-0.758208 -1.704494,-1.465461 -2.546546,-2.114625 -0.844092,0.649164 -1.696339,1.356417 -2.550625,2.114625 0.833897,-0.03567 1.685125,-0.05299 2.548586,-0.05299 0.86448,0 1.714688,0.01834 2.547566,0.05299 z m -12.016072,6.940046 c 0.713604,-0.903939 1.487355,-1.817049 2.315136,-2.731178 0.06015,-1.231069 0.158012,-2.423411 0.292577,-3.565818 -2.153045,0.294518 -4.101184,0.731711 -5.757765,1.297309 0.767634,1.574504 1.834982,3.265185 3.149033,4.998668 z m 0.179421,0.235411 c 0.650399,0.84585 1.357886,1.699853 2.117365,2.555893 -0.03466,-0.83362 -0.05199,-1.682528 -0.05199,-2.545702 0,-0.869289 0.01733,-1.723292 0.05199,-2.563027 -0.759479,0.855021 -1.466966,1.709024 -2.117365,2.552836 z m 16.171286,-3.263146 c -0.06728,-1.141388 -0.170245,-2.247108 -0.30685,-3.303911 -1.058172,-0.138597 -2.163239,-0.242545 -3.306025,-0.309805 0.616758,0.567637 1.233515,1.158713 1.847215,1.773228 0.611661,0.611457 1.200894,1.225972 1.76668,1.840488 z M 18.15858,32.114693 c -0.134566,-1.139349 -0.232431,-2.328635 -0.291558,-3.555627 -0.82982,-0.916167 -1.606629,-1.831316 -2.320233,-2.737292 -1.314051,1.729406 -2.382418,3.41601 -3.152091,4.986438 1.656581,0.570694 3.607778,1.010943 5.763882,1.306481 z m 3.588408,-13.410288 c -1.135649,0.06726 -2.235619,0.16917 -3.288695,0.305729 -0.137623,1.054765 -0.240586,2.155389 -0.308888,3.293719 0.562728,-0.611458 1.149922,-1.223934 1.758524,-1.832335 0.609622,-0.611458 1.224341,-1.200495 1.839059,-1.766094" />
</svg>