<?xml version="1.0" encoding="UTF-8" standalone="no"?>
<!-- Created with Inkscape (http://www.inkscape.org/) -->

<svg
   xmlns:dc="http://purl.org/dc/elements/1.1/"
   xmlns:cc="http://creativecommons.org/ns#"
   xmlns:rdf="http://www.w3.org/1999/02/22-rdf-syntax-ns#"
   xmlns:svg="http://www.w3.org/2000/svg"
   xmlns="http://www.w3.org/2000/svg"
   xmlns:sodipodi="http://sodipodi.sourceforge.net/DTD/sodipodi-0.dtd"
   xmlns:inkscape="http://www.inkscape.org/namespaces/inkscape"
   width="49.995674mm"
   height="13.800664mm"
   viewBox="0 0 177.15003 48.89999"
   id="svg4556"
   version="1.1"
   inkscape:version="0.91 r13725"
   sodipodi:docname="daimler_tss.svg">
  <defs
     id="defs4558" />
  <sodipodi:namedview
     id="base"
     pagecolor="#ffffff"
     bordercolor="#666666"
     borderopacity="1.0"
     inkscape:pageopacity="0.0"
     inkscape:pageshadow="2"
     inkscape:zoom="5.6"
     inkscape:cx="96.686411"
     inkscape:cy="46.632531"
     inkscape:document-units="px"
     inkscape:current-layer="layer1"
     showgrid="false"
     fit-margin-top="0"
     fit-margin-left="0"
     fit-margin-right="0"
     fit-margin-bottom="0"
     inkscape:window-width="1536"
     inkscape:window-height="801"
     inkscape:window-x="-8"
     inkscape:window-y="-8"
     inkscape:window-maximized="1" />
  <metadata
     id="metadata4561">
    <rdf:RDF>
      <cc:Work
         rdf:about="">
        <dc:format>image/svg+xml</dc:format>
        <dc:type
           rdf:resource="http://purl.org/dc/dcmitype/StillImage" />
        <dc:title></dc:title>
      </cc:Work>
    </rdf:RDF>
  </metadata>
  <g
     inkscape:label="Ebene 1"
     inkscape:groupmode="layer"
     id="layer1"
     transform="translate(-231.42499,-625.05507)">
    <g
       id="g78"
       transform="matrix(0.9375,0,0,0.9375,305.52502,666.45507)"
       style="fill:#d7e1ef;fill-opacity:1">
      <path
         d="m 0,0 3.68,0 0,0.8 -3.68,0 0,3.52 4,0 0,0.8 -5.12,0 0,-9.12 5.12,0 0,0.8 -4,0 0,3.2 z"
         style="fill:#d7e1ef;fill-opacity:1;fill-rule:nonzero;stroke:none"
         id="path80"
         inkscape:connector-curvature="0" />
    </g>
    <g
       id="g82"
       transform="matrix(0.9375,0,0,0.9375,310.77499,665.10506)"
       style="fill:#d7e1ef;fill-opacity:1">
      <path
         d="M 0,0 0.96,0 C 1.12,0.32 1.12,0.64 1.12,0.96 1.6,0.32 2.24,-0.16 3.2,-0.16 3.68,-0.16 4.16,0 4.64,0.32 4.96,0.64 5.12,1.12 5.12,1.6 5.28,1.76 5.28,2.24 5.28,2.88 l 0,3.68 -0.96,0 0,-3.68 C 4.32,2.08 4.16,1.6 4.16,1.44 3.84,0.96 3.52,0.8 2.88,0.8 2.24,0.8 1.76,0.96 1.44,1.6 1.28,1.92 1.12,2.4 1.12,3.04 l 0,3.52 -0.96,0 0,-4.32 c 0,-0.8 0,-1.28 0,-1.6 C 0.16,0.48 0.16,0.32 0,0 Z"
         style="fill:#d7e1ef;fill-opacity:1;fill-rule:nonzero;stroke:none"
         id="path84"
         inkscape:connector-curvature="0" />
    </g>
    <g
       id="g86"
       transform="matrix(0.9375,0,0,0.9375,318.42497,666.75516)"
       style="fill:#d7e1ef;fill-opacity:1">
      <path
         d="m 0,0 -0.96,0 c 0.16,-0.48 0.32,-0.96 0.64,-1.28 0.48,-0.32 1.12,-0.64 1.92,-0.64 0.64,0 1.12,0.16 1.6,0.48 0.32,0.32 0.48,0.64 0.64,1.28 0,0.16 0,0.48 0,0.8 l 0,2.56 c 0,0.8 0,1.28 0.16,1.6 l -0.96,0 C 3.04,4.64 2.88,4.32 2.88,4 2.56,4.64 1.92,5.12 0.96,5.12 0.32,5.12 -0.16,4.96 -0.48,4.64 -0.96,4.32 -1.12,3.84 -1.12,3.2 -1.12,2.24 -0.64,1.6 0.32,1.12 0.96,0.96 1.76,0.8 2.88,0.64 l 0,-0.32 C 2.88,-0.16 2.72,-0.48 2.56,-0.64 2.4,-0.96 2.08,-1.12 1.44,-1.12 0.64,-1.12 0.16,-0.64 0,0 Z M 2.88,1.28 C 1.92,1.44 1.28,1.6 0.8,1.92 0.16,2.08 -0.16,2.56 -0.16,3.04 -0.16,3.36 0,3.68 0.16,4 0.48,4.16 0.8,4.16 1.12,4.16 1.76,4.16 2.24,4 2.56,3.52 2.72,3.2 2.88,2.72 2.88,1.92 l 0,-0.64 z"
         style="fill:#d7e1ef;fill-opacity:1;fill-rule:nonzero;stroke:none"
         id="path88"
         inkscape:connector-curvature="0" />
    </g>
    <g
       id="g90"
       transform="matrix(0.9375,0,0,0.9375,324.12498,662.55506)"
       style="fill:#d7e1ef;fill-opacity:1">
      <path
         d="m 0,0 0.96,0 0,3.68 C 1.44,3.04 1.92,2.56 2.72,2.56 3.36,2.56 4,2.88 4.48,3.36 4.96,4 5.28,4.8 5.28,6.08 5.28,7.36 4.96,8.32 4.32,8.96 3.84,9.28 3.36,9.6 2.72,9.6 2.24,9.6 1.76,9.44 1.44,9.12 1.28,8.96 0.96,8.8 0.8,8.48 c 0,0 0,0.16 0,0.16 0,0.16 0,0.48 0,0.64 l -0.96,0 C -0.16,9.12 0,8.48 0,7.52 L 0,0 Z M 2.56,3.52 C 2.08,3.52 1.76,3.68 1.44,4.16 1.12,4.64 0.8,5.28 0.8,6.08 c 0,0.8 0.32,1.44 0.64,2.08 0.32,0.32 0.64,0.48 1.12,0.48 0.48,0 0.8,-0.16 1.12,-0.48 C 4.16,7.68 4.32,7.04 4.32,6.08 4.32,5.12 4.16,4.48 3.84,4 3.52,3.68 3.04,3.52 2.56,3.52 Z"
         style="fill:#d7e1ef;fill-opacity:1;fill-rule:nonzero;stroke:none"
         id="path92"
         inkscape:connector-curvature="0" />
    </g>
    <g
       transform="matrix(0.9375,0,0,0.9375,-301.82501,-318.14494)"
       id="g94"
       style="fill:#d7e1ef;fill-opacity:1">
      <path
         d="m 674.88,1046.08 0.96003,0 0,9.28 -0.96003,0 0,-9.28 z"
         style="fill:#d7e1ef;fill-opacity:1;fill-rule:nonzero;stroke:none"
         id="path96"
         inkscape:connector-curvature="0" />
    </g>
    <g
       id="g98"
       transform="matrix(0.9375,0,0,0.9375,334.32499,662.55506)"
       style="fill:#d7e1ef;fill-opacity:1">
      <path
         d="m 0,0 c 0.16,0 0.32,0 0.48,0.16 0.16,0.16 0.16,0.32 0.16,0.48 0,0.32 0,0.48 -0.16,0.48 C 0.32,1.28 0.16,1.44 0,1.44 -0.16,1.44 -0.32,1.28 -0.48,1.28 -0.64,1.12 -0.64,0.96 -0.64,0.64 c 0,-0.16 0,-0.32 0.16,-0.48 C -0.32,0 -0.16,0 0,0 Z m -0.48,2.72 0.96,0 0,6.56 -0.96,0 0,-6.56 z"
         style="fill:#d7e1ef;fill-opacity:1;fill-rule:nonzero;stroke:none"
         id="path100"
         inkscape:connector-curvature="0" />
    </g>
    <g
       id="g102"
       transform="matrix(0.9375,0,0,0.9375,336.72499,665.10506)"
       style="fill:#d7e1ef;fill-opacity:1">
      <path
         d="m 0,0 0.96,0 c 0,0.32 0,0.64 0,0.96 0.48,-0.64 1.12,-1.12 2.08,-1.12 0.64,0 1.12,0.16 1.44,0.48 0.32,0.32 0.48,0.8 0.64,1.28 0,0.16 0,0.64 0,1.28 l 0,3.68 -0.96,0 0,-3.68 C 4.16,2.08 4.16,1.6 4,1.44 3.84,0.96 3.36,0.8 2.88,0.8 2.24,0.8 1.76,0.96 1.44,1.6 1.12,1.92 1.12,2.4 1.12,3.04 l 0,3.52 -0.96,0 0,-4.32 c 0,-0.8 0,-1.28 0,-1.6 C 0,0.48 0,0.32 0,0 Z"
         style="fill:#d7e1ef;fill-opacity:1;fill-rule:nonzero;stroke:none"
         id="path104"
         inkscape:connector-curvature="0" />
    </g>
    <g
       id="g106"
       transform="matrix(0.9375,0,0,0.9375,348.575,665.10506)"
       style="fill:#d7e1ef;fill-opacity:1">
      <path
         d="m 0,0 0,0.8 -1.28,0 c 0.32,0.32 0.48,0.8 0.48,1.44 0,0.64 -0.16,1.12 -0.64,1.44 -0.16,0.32 -0.8,0.48 -1.44,0.64 -0.48,0.16 -0.8,0.16 -0.96,0.32 -0.32,0.16 -0.48,0.16 -0.48,0.32 0,0.16 0.16,0.32 0.32,0.32 0.16,0.16 0.48,0.16 0.96,0.16 C -2.24,5.6 -1.92,5.6 -1.6,5.6 -0.48,5.92 0,6.56 0,7.36 0,8.16 -0.32,8.64 -0.96,8.96 -1.44,9.28 -2.08,9.44 -3.04,9.44 -4,9.44 -4.64,9.28 -5.28,8.8 -5.76,8.48 -5.92,8.16 -5.92,7.52 c 0,-0.48 0.16,-0.8 0.48,-1.12 0.32,-0.16 0.48,-0.32 0.8,-0.48 -0.48,-0.16 -0.64,-0.48 -0.64,-0.8 0,-0.16 0.16,-0.48 0.48,-0.64 0.16,-0.16 0.48,-0.32 0.64,-0.32 -0.8,-0.32 -1.28,-0.96 -1.28,-1.92 0,-0.8 0.32,-1.28 0.8,-1.76 C -4.16,0.16 -3.68,0 -3.04,0 -2.72,0 -2.4,0 -1.92,0.16 L 0,0 Z m -3.04,6.4 c -0.64,0 -1.12,0 -1.44,0.16 -0.32,0.32 -0.64,0.48 -0.64,0.96 0,0.32 0.16,0.64 0.64,0.8 0.32,0.16 0.96,0.32 1.44,0.32 0.8,0 1.28,-0.16 1.76,-0.48 C -1.12,8 -0.96,7.84 -0.96,7.52 -0.96,6.72 -1.6,6.4 -3.04,6.4 Z m 0,-5.6 c -0.48,0 -0.8,0.16 -0.96,0.32 -0.32,0.32 -0.48,0.64 -0.48,1.12 0,0.32 0.16,0.64 0.32,0.96 0.32,0.16 0.64,0.32 1.12,0.32 0.32,0 0.8,-0.16 0.96,-0.32 C -1.76,2.88 -1.6,2.56 -1.6,2.24 -1.6,1.76 -1.76,1.44 -2.08,1.28 -2.24,0.96 -2.56,0.8 -3.04,0.8 Z"
         style="fill:#d7e1ef;fill-opacity:1;fill-rule:nonzero;stroke:none"
         id="path108"
         inkscape:connector-curvature="0" />
    </g>
    <g
       id="g110"
       transform="matrix(0.9375,0,0,0.9375,354.42499,666.45507)"
       style="fill:#d7e1ef;fill-opacity:1">
      <path
         d="m 0,0 3.68,0 0,0.8 -3.68,0 0,3.52 4.16,0 0,0.8 -5.28,0 0,-9.12 5.12,0 0,0.8 -4,0 0,3.2 z"
         style="fill:#d7e1ef;fill-opacity:1;fill-rule:nonzero;stroke:none"
         id="path112"
         inkscape:connector-curvature="0" />
    </g>
    <g
       id="g114"
       transform="matrix(0.9375,0,0,0.9375,359.37502,665.10506)"
       style="fill:#d7e1ef;fill-opacity:1">
      <path
         d="M 0,0 1.12,0 2.72,2.4 4.16,0 5.44,0 3.2,3.2 5.6,6.56 4.48,6.56 2.72,3.84 0.8,6.56 -0.32,6.56 2.08,3.2 0,0 Z"
         style="fill:#d7e1ef;fill-opacity:1;fill-rule:nonzero;stroke:none"
         id="path116"
         inkscape:connector-curvature="0" />
    </g>
    <g
       id="g118"
       transform="matrix(0.9375,0,0,0.9375,370.17498,667.20506)"
       style="fill:#d7e1ef;fill-opacity:1">
      <path
         d="M 0,0 -0.96,0 C -1.12,-0.48 -1.12,-0.8 -1.28,-0.96 -1.6,-1.28 -1.92,-1.6 -2.4,-1.6 c -0.48,0 -0.96,0.32 -1.28,0.64 -0.32,0.48 -0.48,1.28 -0.48,2.08 0,0.96 0.32,1.76 0.8,2.24 0.16,0.32 0.48,0.32 0.96,0.32 0.96,0 1.44,-0.48 1.44,-1.6 l 0.96,0 c 0,0.8 -0.16,1.28 -0.48,1.76 -0.48,0.48 -1.12,0.8 -1.92,0.8 -0.64,0 -1.28,-0.32 -1.76,-0.8 -0.64,-0.64 -0.96,-1.6 -0.96,-2.72 0,-1.28 0.32,-2.08 0.96,-2.88 0.48,-0.32 1.12,-0.64 1.76,-0.64 0.96,0 1.6,0.32 1.92,0.96 C -0.16,-0.96 0,-0.64 0,0 Z"
         style="fill:#d7e1ef;fill-opacity:1;fill-rule:nonzero;stroke:none"
         id="path120"
         inkscape:connector-curvature="0" />
    </g>
    <g
       id="g122"
       transform="matrix(0.9375,0,0,0.9375,376.62498,668.40497)"
       style="fill:#d7e1ef;fill-opacity:1">
      <path
         d="m 0,0 -4.48,0 c 0,0.64 0.16,1.28 0.48,1.6 0.32,0.64 0.8,0.8 1.44,0.8 0.48,0 0.96,-0.16 1.28,-0.48 0,0 0.16,-0.16 0.32,-0.48 l 0.8,0.16 c -0.32,1.12 -1.12,1.76 -2.4,1.76 -0.8,0 -1.44,-0.32 -1.92,-0.8 -0.64,-0.64 -0.96,-1.6 -0.96,-2.72 0,-1.12 0.32,-2.08 0.96,-2.72 0.48,-0.48 1.12,-0.8 1.92,-0.8 0.8,0 1.6,0.48 2.08,1.12 C -0.16,-1.92 0,-1.12 0,-0.32 L 0,0 Z m -0.96,-0.8 c 0,-0.48 -0.16,-0.8 -0.32,-1.12 -0.32,-0.64 -0.8,-0.96 -1.28,-0.96 -0.64,0 -1.12,0.32 -1.44,0.96 -0.16,0.32 -0.32,0.64 -0.32,1.12 l 3.36,0 z"
         style="fill:#d7e1ef;fill-opacity:1;fill-rule:nonzero;stroke:none"
         id="path124"
         inkscape:connector-curvature="0" />
    </g>
    <g
       transform="matrix(0.9375,0,0,0.9375,-301.82501,-318.14494)"
       id="g126"
       style="fill:#d7e1ef;fill-opacity:1">
      <path
         d="m 725.59998,1046.08 0.96002,0 0,9.28 -0.96002,0 0,-9.28 z m 3.20001,0 0.96002,0 0,9.28 -0.96002,0 0,-9.28 z"
         style="fill:#d7e1ef;fill-opacity:1;fill-rule:evenodd;stroke:none"
         id="path128"
         inkscape:connector-curvature="0" />
    </g>
    <g
       id="g130"
       transform="matrix(0.9375,0,0,0.9375,389.22499,668.40497)"
       style="fill:#d7e1ef;fill-opacity:1">
      <path
         d="m 0,0 -4.48,0 c 0,0.64 0.16,1.28 0.32,1.6 0.32,0.64 0.96,0.8 1.6,0.8 0.48,0 0.8,-0.16 1.12,-0.48 0.16,0 0.32,-0.16 0.32,-0.48 l 0.96,0.16 c -0.48,1.12 -1.28,1.76 -2.4,1.76 -0.8,0 -1.44,-0.32 -2.08,-0.8 -0.48,-0.64 -0.8,-1.6 -0.8,-2.72 0,-1.12 0.32,-2.08 0.96,-2.72 0.48,-0.48 1.12,-0.8 1.76,-0.8 0.96,0 1.6,0.48 2.08,1.12 C -0.16,-1.92 0,-1.12 0,-0.32 L 0,0 Z m -0.96,-0.8 c -0.16,-0.48 -0.16,-0.8 -0.32,-1.12 -0.32,-0.64 -0.8,-0.96 -1.44,-0.96 -0.64,0 -1.12,0.32 -1.44,0.96 -0.16,0.32 -0.32,0.64 -0.32,1.12 l 3.52,0 z"
         style="fill:#d7e1ef;fill-opacity:1;fill-rule:nonzero;stroke:none"
         id="path132"
         inkscape:connector-curvature="0" />
    </g>
    <g
       id="g134"
       transform="matrix(0.9375,0,0,0.9375,390.72496,665.10506)"
       style="fill:#d7e1ef;fill-opacity:1">
      <path
         d="m 0,0 0.96,0 c 0.16,0.32 0.16,0.64 0.16,0.96 0.48,-0.64 1.12,-1.12 1.92,-1.12 0.64,0 1.12,0.16 1.44,0.48 0.48,0.32 0.64,0.8 0.64,1.28 0,0.16 0,0.64 0,1.28 l 0,3.68 -0.96,0 0,-3.68 C 4.16,2.08 4.16,1.6 4,1.44 3.84,0.96 3.52,0.8 2.88,0.8 2.24,0.8 1.76,0.96 1.44,1.6 1.28,1.92 1.12,2.4 1.12,3.04 l 0,3.52 -0.96,0 0,-4.32 c 0,-0.8 0,-1.28 0,-1.6 C 0.16,0.48 0.16,0.32 0,0 Z"
         style="fill:#d7e1ef;fill-opacity:1;fill-rule:nonzero;stroke:none"
         id="path136"
         inkscape:connector-curvature="0" />
    </g>
    <g
       id="g138"
       transform="matrix(0.9375,0,0,0.9375,402.12499,667.20506)"
       style="fill:#d7e1ef;fill-opacity:1">
      <path
         d="M 0,0 -0.96,0 C -1.12,-0.48 -1.12,-0.8 -1.28,-0.96 -1.6,-1.28 -1.92,-1.6 -2.4,-1.6 c -0.64,0 -0.96,0.32 -1.28,0.64 -0.32,0.48 -0.48,1.28 -0.48,2.08 0,0.96 0.16,1.76 0.64,2.24 0.32,0.32 0.64,0.32 1.12,0.32 0.8,0 1.28,-0.48 1.44,-1.6 l 0.96,0 c 0,0.8 -0.32,1.28 -0.64,1.76 -0.32,0.48 -0.96,0.8 -1.76,0.8 -0.8,0 -1.28,-0.32 -1.92,-0.8 -0.64,-0.64 -0.96,-1.6 -0.96,-2.72 0,-1.28 0.48,-2.08 1.12,-2.88 0.48,-0.32 0.96,-0.64 1.76,-0.64 0.8,0 1.44,0.32 1.92,0.96 0.16,0.48 0.32,0.8 0.48,1.44 z"
         style="fill:#d7e1ef;fill-opacity:1;fill-rule:nonzero;stroke:none"
         id="path140"
         inkscape:connector-curvature="0" />
    </g>
    <g
       id="g142"
       transform="matrix(0.9375,0,0,0.9375,408.575,668.40497)"
       style="fill:#d7e1ef;fill-opacity:1">
      <path
         d="m 0,0 -4.48,0 c 0,0.64 0.16,1.28 0.48,1.6 0.32,0.64 0.8,0.8 1.44,0.8 0.48,0 0.96,-0.16 1.12,-0.48 0.16,0 0.32,-0.16 0.48,-0.48 l 0.8,0.16 c -0.32,1.12 -1.12,1.76 -2.4,1.76 -0.8,0 -1.44,-0.32 -2.08,-0.8 -0.48,-0.64 -0.8,-1.6 -0.8,-2.72 0,-1.12 0.32,-2.08 0.96,-2.72 0.48,-0.48 1.12,-0.8 1.92,-0.8 0.8,0 1.6,0.48 2.08,1.12 C -0.16,-1.92 0,-1.12 0,-0.32 L 0,0 Z m -0.96,-0.8 c 0,-0.48 -0.16,-0.8 -0.32,-1.12 -0.32,-0.64 -0.8,-0.96 -1.44,-0.96 -0.48,0 -0.96,0.32 -1.28,0.96 -0.32,0.32 -0.32,0.64 -0.48,1.12 l 3.52,0 z"
         style="fill:#d7e1ef;fill-opacity:1;fill-rule:nonzero;stroke:none"
         id="path144"
         inkscape:connector-curvature="0" />
    </g>
    <g
       id="g146"
       transform="matrix(0.9375,0,0,0.9375,273.72497,634.50506)"
       style="fill:#d7e1ef;fill-opacity:1">
      <path
         d="m 0,0 3.2,0 c 1.76,0 3.04,0 4,0.16 2.4,0.32 4.32,1.44 5.6,3.36 1.28,1.76 1.92,4 1.92,6.4 0,2.72 -0.64,5.12 -2.08,6.879999 C 11.2,18.559999 9.28,19.52 7.04,19.84 6.08,20 4.8,20 2.88,20 L 0,20 0,0 Z m 2.24,18.08 1.44,0 c 1.44,0 2.4,0 3.2,-0.16 1.12,-0.16 2.24,-0.639999 3.2,-1.44 1.44,-1.44 2.24,-3.52 2.24,-6.56 0,-2.4 -0.48,-4.32 -1.76,-5.76 C 9.6,3.04 8.48,2.24 6.88,2.08 6.08,1.92 4.96,1.92 3.2,1.92 l -0.96,0 0,16.16 z"
         style="fill:#d7e1ef;fill-opacity:1;fill-rule:nonzero;stroke:none"
         id="path148"
         inkscape:connector-curvature="0" />
    </g>
    <g
       id="g150"
       transform="matrix(0.9375,0,0,0.9375,292.77498,643.35506)"
       style="fill:#d7e1ef;fill-opacity:1">
      <path
         d="m 0,0 -2.08,0 c 0.16,-1.12 0.48,-2.08 1.28,-2.72 0.96,-0.96 2.24,-1.44 4,-1.44 1.6,0 2.72,0.48 3.52,1.12 C 7.52,-2.56 7.84,-1.6 8,-0.48 8,0 8.16,0.64 8.16,1.44 l 0,5.44 c 0,1.76 0,2.88 0.32,3.68 l -1.92,0 C 6.4,10.08 6.24,9.44 6.24,8.64 5.28,10.24 4,10.88 1.92,10.88 0.64,10.88 -0.32,10.56 -1.12,9.92 -2.08,9.28 -2.56,8.16 -2.56,6.88 -2.56,4.8 -1.44,3.36 0.64,2.56 1.92,2.08 3.68,1.6 6.08,1.28 l 0,-0.64 C 6.08,-0.32 5.92,-0.96 5.6,-1.44 5.12,-2.08 4.32,-2.24 3.2,-2.24 1.28,-2.24 0.32,-1.44 0,0 Z M 6.08,2.88 C 4,3.2 2.56,3.68 1.6,4 0.16,4.64 -0.48,5.6 -0.48,6.72 c 0,0.64 0.32,1.28 0.8,1.76 0.48,0.48 1.12,0.64 1.92,0.64 1.44,0 2.56,-0.48 3.2,-1.6 0.48,-0.64 0.64,-1.76 0.64,-3.2 l 0,-1.44 z"
         style="fill:#d7e1ef;fill-opacity:1;fill-rule:nonzero;stroke:none"
         id="path152"
         inkscape:connector-curvature="0" />
    </g>
    <g
       id="g154"
       transform="matrix(0.9375,0,0,0.9375,305.52502,634.20507)"
       style="fill:#d7e1ef;fill-opacity:1">
      <path
         d="M 0,0 C 0.48,0 0.8,0.16 1.12,0.32 1.44,0.64 1.6,1.12 1.6,1.6 1.6,1.92 1.44,2.24 1.12,2.56 0.8,2.88 0.48,3.04 0,3.04 -0.48,3.04 -0.8,2.88 -1.12,2.72 -1.44,2.4 -1.44,2.08 -1.44,1.6 -1.44,1.12 -1.28,0.64 -1.12,0.48 -0.8,0.16 -0.32,0 0,0 Z m -1.12,6.08 2.24,0 0,14.24 -2.24,0 0,-14.24 z"
         style="fill:#d7e1ef;fill-opacity:1;fill-rule:nonzero;stroke:none"
         id="path156"
         inkscape:connector-curvature="0" />
    </g>
    <g
       id="g158"
       transform="matrix(0.9375,0,0,0.9375,310.32501,639.90506)"
       style="fill:#d7e1ef;fill-opacity:1">
      <path
         d="M 0,0 2.08,0 C 2.4,0.48 2.4,1.12 2.4,1.92 c 0.96,-1.6 2.24,-2.4 4.16,-2.4 1.92,0 3.2,0.96 4,2.56 0.96,-1.6 2.4,-2.56 4.32,-2.56 1.759999,0 3.04,0.64 3.679999,1.92 0.32,0.48 0.480002,1.28 0.480002,2.08 0,0.32 0,0.96 0,1.92 l 0,8.8 -2.080002,0 0,-8.64 c 0,-0.96 0,-1.6 0,-1.92 C 16.799999,2.24 15.84,1.44 14.24,1.44 12.96,1.44 12,1.92 11.36,3.04 11.04,3.68 10.88,4.48 10.88,5.76 l 0,8.48 -2.08,0 0,-8.32 C 8.8,4.16 8.64,3.2 8.48,2.88 8,1.92 7.2,1.44 5.92,1.44 5.28,1.44 4.48,1.6 4,2.08 3.04,2.72 2.56,4 2.56,5.92 l 0,8.32 -2.08,0 0,-9.92 c 0,-1.6 0,-2.56 -0.16,-2.88 C 0.32,0.96 0.16,0.48 0,0 Z"
         style="fill:#d7e1ef;fill-opacity:1;fill-rule:nonzero;stroke:none"
         id="path160"
         inkscape:connector-curvature="0" />
    </g>
    <g
       transform="matrix(0.9375,0,0,0.9375,-301.82501,-318.14494)"
       id="g162"
       style="fill:#d7e1ef;fill-opacity:1">
      <path
         d="m 676.32001,1016 2.23999,0 0,20.16 -2.23999,0 0,-20.16 z"
         style="fill:#d7e1ef;fill-opacity:1;fill-rule:nonzero;stroke:none"
         id="path164"
         inkscape:connector-curvature="0" />
    </g>
    <g
       id="g166"
       transform="matrix(0.9375,0,0,0.9375,348.87501,646.95497)"
       style="fill:#d7e1ef;fill-opacity:1">
      <path
         d="m 0,0 -9.76,0 c 0,1.44 0.32,2.72 0.96,3.52 0.64,1.12 1.76,1.76 3.2,1.76 1.12,0 1.92,-0.32 2.56,-0.96 C -2.88,4 -2.56,3.68 -2.24,3.2 l 1.92,0.16 c -0.96,2.56 -2.72,3.68 -5.28,3.68 -1.76,0 -3.2,-0.48 -4.32,-1.6 -1.28,-1.28 -1.92,-3.2 -1.92,-5.76 0,-2.56 0.64,-4.64 2.08,-6.08 1.12,-0.96 2.4,-1.6 4,-1.6 1.92,0 3.52,0.96 4.64,2.56 0.8,1.28 1.12,2.88 1.12,4.8 L 0,0 Z m -2.24,-1.76 c 0,-0.96 -0.32,-1.92 -0.64,-2.56 -0.64,-1.28 -1.6,-1.76 -3.04,-1.76 -1.28,0 -2.24,0.48 -2.88,1.76 -0.48,0.64 -0.64,1.6 -0.8,2.56 l 7.36,0 z"
         style="fill:#d7e1ef;fill-opacity:1;fill-rule:nonzero;stroke:none"
         id="path168"
         inkscape:connector-curvature="0" />
    </g>
    <g
       id="g170"
       transform="matrix(0.9375,0,0,0.9375,352.02499,639.90506)"
       style="fill:#d7e1ef;fill-opacity:1">
      <path
         d="m 0,0 2.08,0 c 0.16,0.8 0.16,1.44 0.16,2.24 0,0.16 0,0.48 0,0.8 0.96,-2.24 2.24,-3.52 3.68,-3.52 0.48,0 1.12,0.16 1.76,0.48 l 0,2.08 C 6.88,1.76 6.24,1.6 5.76,1.6 4.64,1.6 3.68,2.24 3.04,3.84 2.56,4.64 2.4,6.08 2.4,7.84 l 0,6.4 -2.08,0 0,-9.28 C 0.16,3.36 0.16,2.24 0.16,1.92 0.16,1.28 0.16,0.64 0,0 Z"
         style="fill:#d7e1ef;fill-opacity:1;fill-rule:nonzero;stroke:none"
         id="path172"
         inkscape:connector-curvature="0" />
    </g>
    <g
       id="g174"
       transform="matrix(0.9375,0,0,0.9375,367.02499,634.50506)"
       style="fill:#d7e1ef;fill-opacity:1">
      <path
         d="m 0,0 12.64,0 0,1.92 -5.12,0 0,18.08 -2.24,0 0,-18.08 L 0,1.92 0,0 Z"
         style="fill:#d7e1ef;fill-opacity:1;fill-rule:nonzero;stroke:none"
         id="path176"
         inkscape:connector-curvature="0" />
    </g>
    <g
       id="g178"
       transform="matrix(0.9375,0,0,0.9375,392.67498,639.30506)"
       style="fill:#d7e1ef;fill-opacity:1">
      <path
         d="m 0,0 -2.24,0 c -0.16,-0.96 -0.48,-1.76 -0.96,-2.4 -0.64,-0.8 -1.6,-1.12 -2.88,-1.12 -1.12,0 -1.92,0.16 -2.56,0.8 -0.8,0.48 -1.12,1.28 -1.12,2.24 0,0.8 0.32,1.6 1.12,2.08 0.48,0.32 1.6,0.96 3.52,1.76 1.44,0.64 2.56,1.28 3.2,1.6 1.6,1.12 2.4,2.56 2.4,4.48 0,1.92 -0.64,3.52 -2.08,4.48 -1.28,0.96 -2.72,1.28 -4.48,1.28 -2.4,0 -4.16,-0.8 -5.44,-2.24 -0.64,-1.12 -1.12,-2.4 -1.28,-4.16 l 2.24,0 c 0.16,1.28 0.48,2.24 1.12,3.04 0.8,0.96 1.92,1.44 3.52,1.44 1.12,0 2.08,-0.32 2.88,-0.96 0.8,-0.64 1.28,-1.44 1.28,-2.56 C -1.76,8.8 -2.24,8 -3.04,7.36 -3.52,6.88 -4.48,6.4 -6.08,5.6 -8.16,4.64 -9.6,4 -10.24,3.52 -11.52,2.4 -12,1.28 -12,-0.32 c 0,-1.6 0.64,-2.88 1.92,-4 1.12,-0.8 2.4,-1.12 4,-1.12 2.24,0 4,0.64 4.96,2.24 0.64,0.8 0.96,1.92 1.12,3.2 z"
         style="fill:#d7e1ef;fill-opacity:1;fill-rule:nonzero;stroke:none"
         id="path180"
         inkscape:connector-curvature="0" />
    </g>
    <g
       id="g182"
       transform="matrix(0.9375,0,0,0.9375,408.12502,639.30506)"
       style="fill:#d7e1ef;fill-opacity:1">
      <path
         d="m 0,0 -2.24,0 c -0.16,-0.96 -0.48,-1.76 -0.96,-2.4 -0.64,-0.8 -1.6,-1.12 -3.04,-1.12 -0.96,0 -1.76,0.16 -2.4,0.8 -0.8,0.48 -1.12,1.28 -1.12,2.24 0,0.8 0.32,1.6 1.12,2.08 0.48,0.32 1.6,0.96 3.52,1.76 1.44,0.64 2.56,1.28 3.2,1.6 1.6,1.12 2.4,2.56 2.4,4.48 0,1.92 -0.64,3.52 -2.08,4.48 -1.28,0.96 -2.72,1.28 -4.48,1.28 -2.4,0 -4.16,-0.8 -5.44,-2.24 -0.64,-1.12 -1.12,-2.4 -1.28,-4.16 l 2.24,0 c 0.16,1.28 0.48,2.24 0.96,3.04 0.96,0.96 2.08,1.44 3.68,1.44 1.12,0 2.08,-0.32 2.88,-0.96 0.8,-0.64 1.28,-1.44 1.28,-2.56 C -1.76,8.8 -2.24,8 -3.04,7.36 -3.52,6.88 -4.48,6.4 -6.08,5.6 -8.16,4.64 -9.6,4 -10.24,3.52 c -1.28,-1.12 -1.92,-2.24 -1.92,-3.84 0,-1.6 0.8,-2.88 2.08,-4 1.12,-0.8 2.4,-1.12 4,-1.12 2.24,0 3.84,0.64 4.96,2.24 0.64,0.8 0.96,1.92 1.12,3.2 z"
         style="fill:#d7e1ef;fill-opacity:1;fill-rule:nonzero;stroke:none"
         id="path184"
         inkscape:connector-curvature="0" />
    </g>
    <g
       id="g186"
       transform="matrix(0.9375,0,0,0.9375,258.27499,657.90506)">
      <path
         d="m 0,0 c 0,2.88 -2.24,5.12 -4.96,5.12 -2.72,0 -4.96,-2.24 -4.96,-5.12 0,-2.72 2.24,-4.96 4.96,-4.96 C -2.24,-4.96 0,-2.72 0,0 Z"
         style="fill:#3fc1f3;fill-opacity:1;fill-rule:nonzero;stroke:none"
         id="path188"
         inkscape:connector-curvature="0" />
    </g>
    <g
       id="g190"
       transform="matrix(0.9375,0,0,0.9375,239.22499,642.30507)">
      <path
         d="m 0,0 c -0.32,0 -0.8,-0.16 -1.12,-0.16 -4,0 -7.2,3.2 -7.2,7.2 0,4 3.2,7.2 7.2,7.2 3.84,0 7.04,-3.2 7.04,-7.2 0,-0.48 0,-0.8 0,-1.28 0,0 -0.16,-0.16 -0.16,-0.16 0,-0.64 0.64,-1.28 1.28,-1.28 0.16,0 0.32,0.16 0.48,0.16 1.44,0.64 3.04,0.96 4.8,0.96 6.559999,0 12,-5.28 12,-11.84 0,-6.72 -5.440001,-12 -12,-12 -6.56,0 -12,5.28 -12,12 0,1.6 0.48,3.36 1.12,4.8 0,0.16 0,0.32 0,0.48 C 1.44,-0.48 0.96,0 0.32,0 0.16,0 0.16,0 0,0 Z"
         style="fill:#3fc1f3;fill-opacity:1;fill-rule:nonzero;stroke:none"
         id="path192"
         inkscape:connector-curvature="0" />
    </g>
  </g>
</svg>
