<?xml version="1.0" encoding="UTF-8" standalone="no"?>
<svg
   xmlns:dc="http://purl.org/dc/elements/1.1/"
   xmlns:cc="http://creativecommons.org/ns#"
   xmlns:rdf="http://www.w3.org/1999/02/22-rdf-syntax-ns#"
   xmlns:svg="http://www.w3.org/2000/svg"
   xmlns="http://www.w3.org/2000/svg"
   xmlns:sodipodi="http://sodipodi.sourceforge.net/DTD/sodipodi-0.dtd"
   xmlns:inkscape="http://www.inkscape.org/namespaces/inkscape"
   width="102.84949"
   height="102.84914"
   OVERFLOW="visible"
   id="svg2"
   version="1.1"
   inkscape:version="0.91 r13725"
   sodipodi:docname="jugend_forscht.svg">
  <metadata
     id="metadata15">
    <rdf:RDF>
      <cc:Work
         rdf:about="">
        <dc:format>image/svg+xml</dc:format>
        <dc:type
           rdf:resource="http://purl.org/dc/dcmitype/StillImage" />
        <dc:title></dc:title>
      </cc:Work>
    </rdf:RDF>
  </metadata>
  <defs
     id="defs13" />
  <sodipodi:namedview
     pagecolor="#ffffff"
     bordercolor="#666666"
     borderopacity="1"
     objecttolerance="10"
     gridtolerance="10"
     guidetolerance="10"
     inkscape:pageopacity="0"
     inkscape:pageshadow="2"
     inkscape:window-width="717"
     inkscape:window-height="480"
     id="namedview11"
     showgrid="false"
     fit-margin-left="2"
     fit-margin-top="2"
     fit-margin-right="2"
     fit-margin-bottom="2"
     inkscape:zoom="2.38396"
     inkscape:cx="44.832292"
     inkscape:cy="65.825765"
     inkscape:window-x="0"
     inkscape:window-y="0"
     inkscape:window-maximized="0"
     inkscape:current-layer="svg2" />
  <g
     id="g4"
     transform="translate(-2.943909,-3.339027)">
    <title
       id="title6">Layer 1</title>
    <g
       id="svg_1">
      <path
         d="m 4.943909,54.764656 c 0,-27.29447 22.12265,-49.425629 49.423859,-49.425629 27.290222,0 49.425632,22.131159 49.425632,49.425629 0,27.299072 -22.135409,49.423504 -49.425632,49.423504 -27.301208,0 -49.423859,-22.124432 -49.423859,-49.423504 z"
         id="_46828632"
         inkscape:connector-curvature="0"
         style="fill:#cc0001" />
      <path
         d="m 50.999847,93.226921 -1.322693,-0.210472 -0.821716,5.197327 c -0.148804,0.943588 -0.431549,1.425476 -1.292603,1.295441 -0.800079,-0.130753 -0.952087,-0.663666 -0.819214,-1.52256 l 0.06308,-0.389771 -1.324829,-0.210823 -0.06308,0.404648 c -0.216492,1.373032 0.271759,2.524959 1.868378,2.777599 2.17276,0.34547 2.693268,-0.907794 2.901611,-2.219531 l 0.811066,-5.121857 z m 0.878052,4.919533 c 0.03543,1.960516 1.305359,2.910476 3.188263,2.883196 1.884674,-0.034 3.123077,-1.030047 3.085175,-2.990908 l -0.08221,-4.900047 -1.339386,0.02516 0.08008,4.458191 c 0.01453,1.027557 -0.02939,2.221657 -1.762421,2.247169 -1.735168,0.03153 -1.824097,-1.15831 -1.836517,-2.187996 l -0.08008,-4.4543 -1.341492,0.02516 0.08859,4.894371 z m 14.063049,-2.904099 -3.186157,0.676064 0.21048,0.996025 1.992401,-0.423424 c 0.250519,1.276299 -0.311829,2.239021 -1.661804,2.495552 -1.602295,0.345474 -2.571381,-0.928345 -2.876831,-2.36055 -0.30719,-1.438232 0.06131,-2.996933 1.670319,-3.337799 0.941101,-0.195946 1.903809,0.121887 2.240784,1.080353 l 1.276306,-0.271767 c -0.554169,-1.646935 -2.110748,-2.224136 -3.746704,-1.874413 -2.24469,0.47374 -3.207397,2.538071 -2.749939,4.681778 0.446075,2.137321 2.170624,3.634726 4.418152,3.156376 0.911682,-0.195591 1.490662,-0.591373 2.02356,-1.53709 l 0.389435,0.836227 0.838348,-0.17717 -0.838348,-3.940163 z m 2.737549,3.268707 5.178558,-2.093391 -0.435852,-1.070076 -3.933777,1.589882 -0.835846,-2.073898 3.571289,-1.444611 -0.406433,-1.013382 -3.575897,1.440712 -0.753998,-1.857758 3.871063,-1.562248 -0.440094,-1.069725 -5.104858,2.059372 2.865845,7.095123 z m 6.75177,-2.83252 1.094879,-0.653038 -2.901947,-4.824921 0.034,-0.01878 5.879425,3.030594 1.21109,-0.73098 -3.942291,-6.55761 -1.090973,0.659058 2.904083,4.829178 -0.01663,0.01418 -5.902802,-3.034142 -1.209351,0.728508 3.940521,6.557961 z m 6.949493,-4.422409 2.322998,-2.161064 c 1.726654,-1.608665 1.301453,-3.55677 -0.141022,-5.100243 -1.444611,-1.545944 -3.353027,-2.104012 -5.075439,-0.494995 l -2.322632,2.158585 5.216095,5.597717 z m -3.491913,-5.709335 0.966949,-0.897163 c 1.534973,-1.433975 2.680511,-0.861382 3.72757,0.254761 1.04422,1.124298 1.537079,2.308113 0,3.740318 l -0.966614,0.895042 -3.727905,-3.992958 z m 11.926056,-3.141853 0.74765,-1.110115 -2.813751,-1.897446 1.933594,-2.86795 -0.907806,-0.61264 -1.928986,2.86795 -1.66571,-1.116142 2.204651,-3.27047 -0.955994,-0.648781 -2.956512,4.382721 6.342865,4.272873 z M 89.752319,70.870773 c 0.663666,-1.495277 2.262054,-1.534966 3.601074,-0.94146 1.343994,0.598465 2.39032,1.81559 1.722778,3.312286 -0.667603,1.499878 -2.269867,1.535667 -3.613831,0.939682 -1.336914,-0.593857 -2.377563,-1.813461 -1.710022,-3.310509 z m -1.002045,-0.444336 c -0.935425,2.093391 0.174683,4.089691 2.166748,4.978348 2.000916,0.888313 4.224335,0.376656 5.157257,-1.720627 0.932983,-2.093391 -0.174683,-4.087563 -2.173096,-4.976227 -1.994171,-0.888657 -4.217957,-0.376656 -5.150909,1.718506 z m 9.175079,-1.802834 0.301514,-1.30146 -3.070618,-0.707245 0.446411,-1.922958 c 0.275696,-1.200115 0.947876,-1.341492 2.314514,-1.025429 0.366394,0.07972 0.772827,0.176456 1.143433,0.0528 l 0.322449,-1.398899 c -0.370667,0.208702 -1.194092,0.152008 -2.057617,-0.04819 -1.181335,-0.27142 -1.663574,0.309685 -1.832214,0.747993 l -0.02521,-0.0064 c -0.02124,-0.263622 -0.15802,-1.335121 -1.587708,-1.66571 -1.261444,-0.295158 -2.20929,0.370274 -2.586273,1.99807 l -0.823486,3.563152 7.454803,1.714256 z M 91.841826,65.846 92.328307,63.727454 c 0.155914,-0.682087 0.486145,-1.251141 1.440002,-1.030037 0.783447,0.177162 1.080383,0.718227 0.889038,1.546295 l -0.490784,2.139099 -2.324738,-0.536812 z m 5.171783,-4.839451 c 1.893188,0.0737 2.804932,-1.299332 2.89563,-3.042995 0.08008,-1.516182 -0.526184,-3.076656 -2.234436,-3.163113 -0.798279,-0.04429 -1.680237,0.391891 -2.027832,1.385433 -0.138916,0.387993 -0.671814,2.055477 -0.707947,2.169571 -0.174683,0.538937 -0.494263,0.888306 -1.029663,0.859253 -0.770691,-0.04039 -0.953522,-0.834095 -0.921997,-1.450985 0.04822,-0.92445 0.446472,-1.566853 1.433655,-1.577839 l 0.06378,-1.339016 c -1.588135,-0.0861 -2.501953,1.206852 -2.586273,2.803112 -0.07159,1.37941 0.570801,2.830399 2.101532,2.914726 0.790161,0.03543 1.6026,-0.305431 2.027832,-1.592361 0.343323,-1.033939 0.518005,-1.722759 0.745483,-2.247169 0.135376,-0.302952 0.389771,-0.612637 0.977295,-0.578621 0.576843,0.02693 1.130981,0.496773 1.07428,1.675987 -0.06128,1.07008 -0.562622,1.910198 -1.741516,1.844646 l -0.06982,1.339371 z M 93.905455,47.377208 c -1.617188,0.360355 -2.398834,1.827991 -2.198975,3.540119 0.280273,2.274452 2.253906,3.413624 4.427002,3.150711 2.168884,-0.265392 3.807251,-1.853504 3.52948,-4.125828 -0.229614,-1.838623 -1.640198,-2.9739 -3.472778,-2.857681 l 0.160522,1.299332 c 1.119995,-0.03366 2.082397,0.511654 2.227661,1.688744 0.198059,1.625668 -1.151611,2.485275 -2.608948,2.662086 -1.457703,0.183189 -2.978149,-0.324566 -3.177979,-1.950237 -0.137146,-1.107639 0.43158,-1.745434 1.27594,-2.078506 l -0.161926,-1.328739 z m 4.845459,-2.406971 -0.368469,-1.288704 -3.320801,0.949608 -0.95636,-3.348427 3.315125,-0.954212 -0.36676,-1.282326 -7.351624,2.107914 0.366364,1.286579 2.92749,-0.837639 0.955963,3.344173 -2.923218,0.842247 0.36673,1.286575 7.35556,-2.105789 z m -8.138977,-4.416027 -1.059448,-2.17524 5.835449,-2.847401 -0.5896,-1.204727 -5.837952,2.84705 -1.061218,-2.187992 -1.042419,0.507755 2.712402,5.56583 1.042786,-0.505276 z M 26.690978,14.636669 55.592711,37.820899 81.480467,14.531433 67.177183,47.375434 80.602445,58.761863 65.616727,59.882255 65.519986,75.334983 56.178037,65.572463 25.716214,92.852042 41.581754,61.507926 26.883024,62.522731 43.81616,47.67839 26.690977,14.63667 Z"
         id="_47558552"
         inkscape:connector-curvature="0"
         style="fill:#ffffff" />
    </g>
  </g>
</svg>
