<svg width="140" height="140" xmlns="http://www.w3.org/2000/svg" xmlns:svg="http://www.w3.org/2000/svg" OVERFLOW="visible">

 <g>
  <title>Layer 1</title>
  <g id="svg_1">
   <path d="m4.943909,54.764656c0,-27.29447 22.12265,-49.425629 49.423859,-49.425629c27.290222,0 49.425629,22.131159 49.425629,49.425629c0,27.299072 -22.135406,49.4235 -49.425629,49.4235c-27.301208,0 -49.423859,-22.124428 -49.423859,-49.4235z" fill="#cc0001" id="_46828632"/>
   <path d="m50.999847,93.226921l-1.322693,-0.210472l-0.821716,5.197327c-0.148804,0.943588 -0.431549,1.425476 -1.292603,1.295441c-0.800079,-0.130753 -0.952087,-0.663666 -0.819214,-1.52256l0.06308,-0.389771l-1.324829,-0.210823l-0.06308,0.404648c-0.216492,1.373032 0.271759,2.524963 1.868378,2.777596c2.17276,0.345474 2.693268,-0.907791 2.901611,-2.219528l0.811066,-5.121857zm0.878052,4.919533c0.035431,1.960518 1.305359,2.910477 3.188263,2.883194c1.884674,-0.034019 3.123077,-1.030045 3.085175,-2.990906l-0.082214,-4.900047l-1.339386,0.025162l0.080078,4.458191c0.014526,1.027557 -0.029388,2.221657 -1.762421,2.247169c-1.735168,0.031532 -1.824097,-1.15831 -1.836517,-2.187996l-0.080078,-4.4543l-1.341492,0.025162l0.088593,4.894371zm14.063049,-2.904099l-3.186157,0.676064l0.21048,0.996025l1.992401,-0.423424c0.250519,1.276299 -0.311829,2.239021 -1.661804,2.495552c-1.602295,0.345474 -2.571381,-0.928345 -2.876831,-2.36055c-0.30719,-1.438232 0.06131,-2.996933 1.670319,-3.337799c0.941101,-0.195946 1.903809,0.121887 2.240784,1.080353l1.276306,-0.271767c-0.554169,-1.646935 -2.110748,-2.224136 -3.746704,-1.874413c-2.24469,0.47374 -3.207397,2.538071 -2.749939,4.681778c0.446075,2.137321 2.170624,3.634727 4.418152,3.15638c0.911682,-0.195595 1.490662,-0.591377 2.02356,-1.537094l0.389435,0.836227l0.838348,-0.17717l-0.838348,-3.940163zm2.737549,3.268707l5.178558,-2.093391l-0.435852,-1.070076l-3.933777,1.589882l-0.835846,-2.073898l3.571289,-1.444611l-0.406433,-1.013382l-3.575897,1.440712l-0.753998,-1.857758l3.871063,-1.562248l-0.440094,-1.069725l-5.104858,2.059372l2.865845,7.095123zm6.75177,-2.83252l1.094879,-0.653038l-2.901947,-4.824921l0.033997,-0.018784l5.879425,3.030594l1.21109,-0.73098l-3.942291,-6.55761l-1.090973,0.659058l2.904083,4.829178l-0.016632,0.014175l-5.902802,-3.034142l-1.209351,0.728508l3.940521,6.557961zm6.949493,-4.422409l2.322998,-2.161064c1.726654,-1.608665 1.301453,-3.55677 -0.141022,-5.100243c-1.444611,-1.545944 -3.353027,-2.104012 -5.075439,-0.494995l-2.322632,2.158585l5.216095,5.597717zm-3.491913,-5.709335l0.966949,-0.897163c1.534973,-1.433975 2.680511,-0.861382 3.72757,0.254761c1.04422,1.124298 1.537079,2.308113 0,3.740318l-0.966614,0.895042l-3.727905,-3.992958zm11.926056,-3.141853l0.74765,-1.110115l-2.813751,-1.897446l1.933594,-2.86795l-0.907806,-0.61264l-1.928986,2.86795l-1.66571,-1.116142l2.204651,-3.27047l-0.955994,-0.648781l-2.956512,4.382721l6.342865,4.272873zm-1.061584,-11.534172c0.663666,-1.495277 2.262054,-1.534966 3.601074,-0.94146c1.343994,0.598465 2.39032,1.81559 1.722778,3.312286c-0.667603,1.499878 -2.269867,1.535667 -3.613831,0.939682c-1.336914,-0.593857 -2.377563,-1.813461 -1.710022,-3.310509zm-1.002045,-0.444336c-0.935425,2.093391 0.174683,4.089691 2.166748,4.978348c2.000916,0.888313 4.224335,0.376656 5.157257,-1.720627c0.932983,-2.093391 -0.174683,-4.087563 -2.173096,-4.976227c-1.994171,-0.888657 -4.217957,-0.376656 -5.150909,1.718506zm9.175079,-1.802834l0.301514,-1.30146l-3.070618,-0.707245l0.446411,-1.922958c0.275696,-1.200115 0.947876,-1.341492 2.314514,-1.025429c0.366394,0.079723 0.772827,0.176456 1.143433,0.052795l0.322449,-1.398899c-0.370667,0.208702 -1.194092,0.152008 -2.057617,-0.048187c-1.181335,-0.27142 -1.663574,0.309685 -1.832214,0.747993l-0.025208,-0.006378c-0.02124,-0.263622 -0.15802,-1.335121 -1.587708,-1.66571c-1.261444,-0.295158 -2.20929,0.370274 -2.586273,1.99807l-0.823486,3.563152l7.454803,1.714256zm-6.083527,-2.777603l0.486481,-2.118546c0.155914,-0.682087 0.486145,-1.251141 1.440002,-1.030037c0.783447,0.177162 1.080383,0.718227 0.889038,1.546295l-0.490784,2.139099l-2.324738,-0.536812zm5.171783,-4.839451c1.893188,0.0737 2.804932,-1.299332 2.89563,-3.042995c0.080078,-1.516182 -0.526184,-3.076656 -2.234436,-3.163113c-0.798279,-0.044292 -1.680237,0.391891 -2.027832,1.385433c-0.138916,0.387993 -0.671814,2.055477 -0.707947,2.169571c-0.174683,0.538937 -0.494263,0.888306 -1.029663,0.859253c-0.770691,-0.040394 -0.953522,-0.834095 -0.921997,-1.450985c0.048218,-0.92445 0.446472,-1.566853 1.433655,-1.577839l0.063782,-1.339016c-1.588135,-0.086102 -2.501953,1.206852 -2.586273,2.803112c-0.071594,1.37941 0.570801,2.830399 2.101532,2.914726c0.790161,0.035435 1.6026,-0.305431 2.027832,-1.592361c0.343323,-1.033939 0.518005,-1.722759 0.745483,-2.247169c0.135376,-0.302952 0.389771,-0.612637 0.977295,-0.578621c0.576843,0.026928 1.130981,0.496773 1.07428,1.675987c-0.061279,1.07008 -0.562622,1.910198 -1.741516,1.844646l-0.069824,1.339371zm-3.108154,-13.629341c-1.617188,0.360355 -2.398834,1.827991 -2.198975,3.540119c0.280273,2.274452 2.253906,3.413624 4.427002,3.150711c2.168884,-0.265392 3.807251,-1.853504 3.52948,-4.125828c-0.229614,-1.838623 -1.640198,-2.9739 -3.472778,-2.857681l0.160522,1.299332c1.119995,-0.033661 2.082397,0.511654 2.227661,1.688744c0.198059,1.625668 -1.151611,2.485275 -2.608948,2.662086c-1.457703,0.183189 -2.978149,-0.324566 -3.177979,-1.950237c-0.137146,-1.107639 0.43158,-1.745434 1.27594,-2.078506l-0.161926,-1.328739zm4.845459,-2.406971l-0.368469,-1.288704l-3.320801,0.949608l-0.95636,-3.348427l3.315125,-0.954212l-0.36676,-1.282326l-7.351624,2.107914l0.366364,1.286579l2.92749,-0.837639l0.955963,3.344173l-2.923218,0.842247l0.36673,1.286575l7.35556,-2.105789zm-8.138977,-4.416027l-1.059448,-2.17524l5.835449,-2.847401l-0.5896,-1.204727l-5.837952,2.84705l-1.061218,-2.187992l-1.042419,0.507755l2.712402,5.56583l1.042786,-0.505276zm-63.920959,-25.917541l28.901733,23.18423l25.887756,-23.289466l-14.303284,32.844001l13.425262,11.386429l-14.985718,1.120392l-0.096741,15.452728l-9.341949,-9.76252l-30.461823,27.279579l15.86554,-31.344116l-14.69873,1.014805l16.933136,-14.844341l-17.125183,-33.04172z" fill="white" id="_47558552"/>
  </g>
 </g>
</svg>